Ibarra Real Nova-Regular.ufo
<glyph name="numbersign" format="1">
  <advance width="484"/>
  <unicode hex="0023"/>
  <outline>
    <contour>
      <point x="247" y="-26" type="line"/>
      <point x="288" y="-26" type="line"/>
      <point x="395" y="674" type="line"/>
      <point x="351" y="674" type="line"/>
    </contour>
    <contour>
      <point x="30" y="180" type="line"/>
      <point x="414" y="180" type="line"/>
      <point x="420" y="222" type="line"/>
      <point x="36" y="222" type="line"/>
    </contour>
    <contour>
      <point x="87" y="-26" type="line"/>
      <point x="127" y="-26" type="line"/>
      <point x="234" y="674" type="line"/>
      <point x="192" y="674" type="line"/>
    </contour>
    <contour>
      <point x="64" y="410" type="line"/>
      <point x="448" y="410" type="line"/>
      <point x="454" y="452" type="line"/>
      <point x="70" y="452" type="line"/>
    </contour>
  </outline>
</glyph>
<glyph name="parenleft" format="1">
  <advance width="301"/>
  <unicode hex="0028"/>
  <outline>
    <contour>
      <point x="238" y="-238" type="curve"/>
      <point x="261" y="-223" type="line"/>
      <point x="179" y="-78"/>
      <point x="132" y="84"/>
      <point x="132" y="257" type="curve" smooth="yes"/>
      <point x="132" y="430"/>
      <point x="179" y="592"/>
      <point x="261" y="737" type="curve"/>
      <point x="238" y="752" type="line"/>
      <point x="119" y="604"/>
      <point x="60" y="423"/>
      <point x="60" y="257" type="curve" smooth="yes"/>
      <point x="60" y="91"/>
      <point x="119" y="-90"/>
    </contour>
  </outline>
</glyph>
<glyph name="period" format="1">
  <advance width="265"/>
  <unicode hex="002E"/>
  <outline>
    <contour>
      <point x="68" y="57" type="curve" smooth="yes"/>
      <point x="68" y="23"/>
      <point x="97" y="-6"/>
      <point x="131" y="-6" type="curve" smooth="yes"/>
      <point x="167" y="-6"/>
      <point x="196" y="23"/>
      <point x="196" y="57" type="curve" smooth="yes"/>
      <point x="196" y="93"/>
      <point x="167" y="122"/>
      <point x="131" y="122" type="curve" smooth="yes"/>
      <point x="97" y="122"/>
      <point x="68" y="93"/>
    </contour>
  </outline>
</glyph>
<glyph name="three" format="1">
  <advance width="500"/>
  <unicode hex="0033"/>
  <outline>
    <contour>
      <point x="187" y="-10" type="curve" smooth="yes"/>
      <point x="325" y="-10"/>
      <point x="445" y="69"/>
      <point x="445" y="220" type="curve" smooth="yes"/>
      <point x="445" y="302"/>
      <point x="382" y="394"/>
      <point x="270" y="403" type="curve"/>
      <point x="270" y="404" type="line"/>
      <point x="340" y="436"/>
      <point x="386" y="486"/>
      <point x="386" y="554" type="curve" smooth="yes"/>
      <point x="386" y="629"/>
      <point x="324" y="682"/>
      <point x="219" y="682" type="curve" smooth="yes"/>
      <point x="129" y="682"/>
      <point x="48" y="636"/>
      <point x="48" y="559" type="curve" smooth="yes"/>
      <point x="48" y="523"/>
      <point x="71" y="507"/>
      <point x="94" y="507" type="curve" smooth="yes"/>
      <point x="121" y="507"/>
      <point x="142" y="525"/>
      <point x="142" y="551" type="curve" smooth="yes"/>
      <point x="142" y="569"/>
      <point x="134" y="579"/>
      <point x="128" y="587" type="curve" smooth="yes"/>
      <point x="123" y="593"/>
      <point x="118" y="598"/>
      <point x="118" y="605" type="curve" smooth="yes"/>
      <point x="118" y="633"/>
      <point x="155" y="654"/>
      <point x="199" y="654" type="curve" smooth="yes"/>
      <point x="265" y="654"/>
      <point x="298" y="611"/>
      <point x="298" y="537" type="curve" smooth="yes"/>
      <point x="298" y="472"/>
      <point x="245" y="410"/>
      <point x="172" y="374" type="curve" smooth="yes"/>
      <point x="132" y="354" type="line"/>
      <point x="142" y="337" type="line"/>
      <point x="161" y="342"/>
      <point x="178" y="348"/>
      <point x="195" y="355" type="curve"/>
      <point x="303" y="351"/>
      <point x="353" y="282"/>
      <point x="353" y="194" type="curve" smooth="yes"/>
      <point x="353" y="66"/>
      <point x="265" y="19"/>
      <point x="192" y="19" type="curve" smooth="yes"/>
      <point x="143" y="19"/>
      <point x="100" y="41"/>
      <point x="100" y="66" type="curve" smooth="yes"/>
      <point x="100" y="73"/>
      <point x="105" y="78"/>
      <point x="110" y="85" type="curve" smooth="yes"/>
      <point x="117" y="93"/>
      <point x="124" y="103"/>
      <point x="124" y="121" type="curve" smooth="yes"/>
      <point x="124" y="145"/>
      <point x="107" y="166"/>
      <point x="79" y="166" type="curve" smooth="yes"/>
      <point x="51" y="166"/>
      <point x="30" y="146"/>
      <point x="30" y="112" type="curve" smooth="yes"/>
      <point x="30" y="38"/>
      <point x="102" y="-10"/>
    </contour>
  </outline>
</glyph>
<glyph name="four" format="1">
  <advance width="546"/>
  <unicode hex="0034"/>
  <outline>
    <contour>
      <point x="190" y="0" type="line"/>
      <point x="506" y="0" type="line"/>
      <point x="506" y="18" type="line"/>
      <point x="455" y="27" type="line" smooth="yes"/>
      <point x="400" y="37"/>
      <point x="391" y="44"/>
      <point x="391" y="86" type="curve" smooth="yes"/>
      <point x="391" y="691" type="line"/>
      <point x="384" y="691" type="line"/>
      <point x="25" y="197" type="line"/>
      <point x="25" y="179" type="line"/>
      <point x="479" y="179" type="line"/>
      <point x="504" y="323" type="line"/>
      <point x="486" y="323" type="line"/>
      <point x="472" y="280" type="line" smooth="yes"/>
      <point x="464" y="255"/>
      <point x="457" y="249"/>
      <point x="429" y="249" type="curve" smooth="yes"/>
      <point x="70" y="249" type="line"/>
      <point x="79" y="225" type="line"/>
      <point x="323" y="563" type="line"/>
      <point x="305" y="569" type="line"/>
      <point x="305" y="86" type="line" smooth="yes"/>
      <point x="305" y="44"/>
      <point x="296" y="37"/>
      <point x="241" y="27" type="curve" smooth="yes"/>
      <point x="190" y="18" type="line"/>
    </contour>
  </outline>
</glyph>
<glyph name="eight" format="1">
  <advance width="538"/>
  <unicode hex="0038"/>
  <outline>
    <contour>
      <point x="264" y="-12" type="curve" smooth="yes"/>
      <point x="389" y="-12"/>
      <point x="483" y="67"/>
      <point x="483" y="181" type="curve" smooth="yes"/>
      <point x="483" y="290"/>
      <point x="395" y="332"/>
      <point x="313" y="383" type="curve" smooth="yes"/>
      <point x="236" y="431"/>
      <point x="161" y="465"/>
      <point x="161" y="547" type="curve" smooth="yes"/>
      <point x="161" y="617"/>
      <point x="216" y="651"/>
      <point x="268" y="651" type="curve" smooth="yes"/>
      <point x="331" y="651"/>
      <point x="378" y="615"/>
      <point x="378" y="541" type="curve" smooth="yes"/>
      <point x="378" y="485"/>
      <point x="352" y="429"/>
      <point x="288" y="390" type="curve"/>
      <point x="318" y="370" type="line"/>
      <point x="392" y="397"/>
      <point x="462" y="451"/>
      <point x="462" y="532" type="curve" smooth="yes"/>
      <point x="462" y="624"/>
      <point x="376" y="681"/>
      <point x="284" y="681" type="curve" smooth="yes"/>
      <point x="149" y="681"/>
      <point x="81" y="599"/>
      <point x="81" y="512" type="curve" smooth="yes"/>
      <point x="81" y="409"/>
      <point x="166" y="371"/>
      <point x="245" y="324" type="curve" smooth="yes"/>
      <point x="323" y="277"/>
      <point x="400" y="233"/>
      <point x="400" y="148" type="curve" smooth="yes"/>
      <point x="400" y="79"/>
      <point x="355" y="21"/>
      <point x="278" y="21" type="curve" smooth="yes"/>
      <point x="200" y="21"/>
      <point x="145" y="75"/>
      <point x="145" y="178" type="curve" smooth="yes"/>
      <point x="145" y="239"/>
      <point x="173" y="302"/>
      <point x="249" y="338" type="curve"/>
      <point x="221" y="359" type="line"/>
      <point x="138" y="332"/>
      <point x="55" y="254"/>
      <point x="55" y="158" type="curve" smooth="yes"/>
      <point x="55" y="53"/>
      <point x="154" y="-12"/>
    </contour>
  </outline>
</glyph>
<glyph name="greater" format="1">
  <advance width="530"/>
  <unicode hex="003E"/>
  <outline>
    <contour>
      <point x="450" y="315" type="line"/>
      <point x="449" y="353" type="line"/>
      <point x="75" y="529" type="line"/>
      <point x="75" y="484" type="line"/>
      <point x="409" y="334" type="line"/>
      <point x="75" y="183" type="line"/>
      <point x="75" y="137" type="line"/>
    </contour>
  </outline>
</glyph>
<glyph name="A" format="1">
  <advance width="763"/>
  <unicode hex="0041"/>
  <outline>
    <contour>
      <point x="5" y="0" type="line"/>
      <point x="262" y="0" type="line"/>
      <point x="262" y="18" type="line"/>
      <point x="197" y="30" type="line" smooth="yes"/>
      <point x="173" y="34"/>
      <point x="160" y="41"/>
      <point x="160" y="57" type="curve" smooth="yes"/>
      <point x="160" y="64"/>
      <point x="163" y="72"/>
      <point x="167" y="82" type="curve" smooth="yes"/>
      <point x="366" y="564" type="line"/>
      <point x="343" y="564" type="line"/>
      <point x="526" y="102" type="line" smooth="yes"/>
      <point x="533" y="83"/>
      <point x="539" y="69"/>
      <point x="539" y="58" type="curve" smooth="yes"/>
      <point x="539" y="42"/>
      <point x="526" y="34"/>
      <point x="483" y="27" type="curve" smooth="yes"/>
      <point x="429" y="18" type="line"/>
      <point x="429" y="0" type="line"/>
      <point x="758" y="0" type="line"/>
      <point x="758" y="18" type="line"/>
      <point x="718" y="26" type="line" smooth="yes"/>
      <point x="677" y="34"/>
      <point x="654" y="48"/>
      <point x="630" y="107" type="curve" smooth="yes"/>
      <point x="386" y="698" type="line"/>
      <point x="377" y="698" type="line"/>
      <point x="377" y="677"/>
      <point x="356" y="637"/>
      <point x="314" y="635" type="curve"/>
      <point x="335" y="580" type="line"/>
      <point x="132" y="84" type="line" smooth="yes"/>
      <point x="119" y="51"/>
      <point x="97" y="34"/>
      <point x="52" y="26" type="curve" smooth="yes"/>
      <point x="5" y="18" type="line"/>
    </contour>
    <contour>
      <point x="227" y="229" type="line"/>
      <point x="513" y="229" type="line"/>
      <point x="513" y="261" type="line"/>
      <point x="220" y="261" type="line"/>
    </contour>
    <contour>
      <point x="374" y="690" type="move" name="topcase"/>
    </contour>
  </outline>
</glyph>
<glyph name="B" format="1">
  <advance width="695"/>
  <unicode hex="0042"/>
  <outline>
    <contour>
      <point x="40" y="0" type="line"/>
      <point x="348" y="0" type="line" smooth="yes"/>
      <point x="504" y="0"/>
      <point x="630" y="63"/>
      <point x="630" y="198" type="curve" smooth="yes"/>
      <point x="630" y="310"/>
      <point x="523" y="360"/>
      <point x="429" y="373" type="curve"/>
      <point x="429" y="375" type="line"/>
      <point x="523" y="392"/>
      <point x="593" y="433"/>
      <point x="593" y="517" type="curve" smooth="yes"/>
      <point x="593" y="611"/>
      <point x="505" y="673"/>
      <point x="368" y="673" type="curve" smooth="yes"/>
      <point x="40" y="673" type="line"/>
      <point x="40" y="655" type="line"/>
      <point x="101" y="644" type="line" smooth="yes"/>
      <point x="156" y="634"/>
      <point x="165" y="627"/>
      <point x="165" y="585" type="curve" smooth="yes"/>
      <point x="165" y="88" type="line" smooth="yes"/>
      <point x="165" y="46"/>
      <point x="156" y="39"/>
      <point x="101" y="29" type="curve" smooth="yes"/>
      <point x="40" y="18" type="line"/>
    </contour>
    <contour>
      <point x="328" y="24" type="line" smooth="yes"/>
      <point x="269" y="25"/>
      <point x="254" y="46"/>
      <point x="254" y="90" type="curve" smooth="yes"/>
      <point x="254" y="357" type="line"/>
      <point x="352" y="357" type="line" smooth="yes"/>
      <point x="462" y="357"/>
      <point x="527" y="283"/>
      <point x="527" y="190" type="curve" smooth="yes"/>
      <point x="527" y="85"/>
      <point x="443" y="24"/>
      <point x="352" y="24" type="curve" smooth="yes"/>
    </contour>
    <contour>
      <point x="254" y="383" type="line"/>
      <point x="254" y="649" type="line"/>
      <point x="350" y="649" type="line" smooth="yes"/>
      <point x="447" y="649"/>
      <point x="500" y="601"/>
      <point x="500" y="514" type="curve" smooth="yes"/>
      <point x="500" y="443"/>
      <point x="446" y="383"/>
      <point x="358" y="383" type="curve" smooth="yes"/>
    </contour>
  </outline>
</glyph>
<glyph name="C" format="1">
  <advance width="735"/>
  <unicode hex="0043"/>
  <outline>
    <contour>
      <point x="400" y="-13" type="curve" smooth="yes"/>
      <point x="438" y="-13"/>
      <point x="489" y="-3"/>
      <point x="535" y="7" type="curve" smooth="yes"/>
      <point x="579" y="16"/>
      <point x="616" y="24"/>
      <point x="644" y="24" type="curve" smooth="yes"/>
      <point x="654" y="24" type="line"/>
      <point x="654" y="77"/>
      <point x="667" y="140"/>
      <point x="680" y="204" type="curve"/>
      <point x="660" y="204" type="line"/>
      <point x="598" y="32"/>
      <point x="458" y="11"/>
      <point x="401" y="11" type="curve" smooth="yes"/>
      <point x="252" y="11"/>
      <point x="143" y="151"/>
      <point x="143" y="339" type="curve" smooth="yes"/>
      <point x="143" y="525"/>
      <point x="262" y="656"/>
      <point x="400" y="656" type="curve" smooth="yes"/>
      <point x="532" y="656"/>
      <point x="624" y="552"/>
      <point x="657" y="468" type="curve"/>
      <point x="677" y="468" type="line"/>
      <point x="655" y="556"/>
      <point x="659" y="608"/>
      <point x="664" y="640" type="curve"/>
      <point x="662" y="642" type="line"/>
      <point x="649" y="640"/>
      <point x="639" y="637"/>
      <point x="625" y="637" type="curve" smooth="yes"/>
      <point x="600" y="637"/>
      <point x="578" y="645"/>
      <point x="550" y="655" type="curve" smooth="yes"/>
      <point x="514" y="667"/>
      <point x="469" y="681"/>
      <point x="396" y="681" type="curve" smooth="yes"/>
      <point x="213" y="681"/>
      <point x="45" y="543"/>
      <point x="45" y="337" type="curve" smooth="yes"/>
      <point x="45" y="140"/>
      <point x="189" y="-13"/>
    </contour>
    <contour>
      <point x="410" y="-50" type="move" name="bottom"/>
    </contour>
    <contour>
      <point x="412" y="690" type="move" name="topcase"/>
    </contour>
  </outline>
</glyph>
<glyph name="D" format="1">
  <advance width="805"/>
  <unicode hex="0044"/>
  <outline>
    <contour>
      <point x="40" y="0" type="line"/>
      <point x="356" y="0" type="line" smooth="yes"/>
      <point x="587" y="0"/>
      <point x="760" y="123"/>
      <point x="760" y="335" type="curve" smooth="yes"/>
      <point x="760" y="512"/>
      <point x="612" y="673"/>
      <point x="361" y="673" type="curve" smooth="yes"/>
      <point x="40" y="673" type="line"/>
      <point x="40" y="655" type="line"/>
      <point x="101" y="644" type="line" smooth="yes"/>
      <point x="156" y="634"/>
      <point x="165" y="627"/>
      <point x="165" y="585" type="curve" smooth="yes"/>
      <point x="165" y="88" type="line" smooth="yes"/>
      <point x="165" y="46"/>
      <point x="156" y="39"/>
      <point x="101" y="29" type="curve" smooth="yes"/>
      <point x="40" y="18" type="line"/>
    </contour>
    <contour>
      <point x="356" y="24" type="curve" smooth="yes"/>
      <point x="275" y="25"/>
      <point x="255" y="42"/>
      <point x="255" y="78" type="curve" smooth="yes"/>
      <point x="255" y="649" type="line"/>
      <point x="337" y="649" type="line" smooth="yes"/>
      <point x="541" y="649"/>
      <point x="661" y="540"/>
      <point x="661" y="335" type="curve" smooth="yes"/>
      <point x="661" y="133"/>
      <point x="526" y="24"/>
    </contour>
    <contour>
      <point x="399" y="690" type="move" name="topcase"/>
    </contour>
  </outline>
</glyph>
<glyph name="G" format="1">
  <advance width="807"/>
  <unicode hex="0047"/>
  <outline>
    <contour>
      <point x="400" y="-13" type="curve" smooth="yes"/>
      <point x="447" y="-13"/>
      <point x="493" y="-3"/>
      <point x="534" y="7" type="curve" smooth="yes"/>
      <point x="571" y="16"/>
      <point x="604" y="25"/>
      <point x="625" y="25" type="curve" smooth="yes"/>
      <point x="640" y="25"/>
      <point x="656" y="24"/>
      <point x="666" y="21" type="curve"/>
      <point x="671" y="24" type="line"/>
      <point x="671" y="215" type="line" smooth="yes"/>
      <point x="671" y="257"/>
      <point x="680" y="264"/>
      <point x="735" y="274" type="curve" smooth="yes"/>
      <point x="787" y="283" type="line"/>
      <point x="787" y="301" type="line"/>
      <point x="451" y="301" type="line"/>
      <point x="451" y="283" type="line"/>
      <point x="512" y="272" type="line" smooth="yes"/>
      <point x="567" y="262"/>
      <point x="576" y="255"/>
      <point x="576" y="213" type="curve" smooth="yes"/>
      <point x="576" y="77" type="line"/>
      <point x="535" y="37"/>
      <point x="461" y="11"/>
      <point x="400" y="11" type="curve" smooth="yes"/>
      <point x="221" y="11"/>
      <point x="143" y="194"/>
      <point x="143" y="339" type="curve" smooth="yes"/>
      <point x="143" y="504"/>
      <point x="257" y="656"/>
      <point x="403" y="656" type="curve" smooth="yes"/>
      <point x="538" y="656"/>
      <point x="640" y="553"/>
      <point x="672" y="468" type="curve"/>
      <point x="692" y="468" type="line"/>
      <point x="685" y="482"/>
      <point x="675" y="547"/>
      <point x="675" y="594" type="curve" smooth="yes"/>
      <point x="675" y="608"/>
      <point x="677" y="632"/>
      <point x="680" y="641" type="curve"/>
      <point x="678" y="643" type="line"/>
      <point x="673" y="641"/>
      <point x="656" y="637"/>
      <point x="640" y="637" type="curve" smooth="yes"/>
      <point x="581" y="637"/>
      <point x="532" y="681"/>
      <point x="403" y="681" type="curve" smooth="yes"/>
      <point x="220" y="681"/>
      <point x="45" y="540"/>
      <point x="45" y="337" type="curve" smooth="yes"/>
      <point x="45" y="138"/>
      <point x="192" y="-13"/>
    </contour>
    <contour>
      <point x="410" y="690" type="move" name="topcase"/>
    </contour>
  </outline>
</glyph>
<glyph name="H" format="1">
  <advance width="836"/>
  <unicode hex="0048"/>
  <outline>
    <contour>
      <point x="456" y="0" type="line"/>
      <point x="796" y="0" type="line"/>
      <point x="796" y="18" type="line"/>
      <point x="735" y="29" type="line" smooth="yes"/>
      <point x="680" y="39"/>
      <point x="671" y="46"/>
      <point x="671" y="88" type="curve" smooth="yes"/>
      <point x="671" y="585" type="line" smooth="yes"/>
      <point x="671" y="627"/>
      <point x="680" y="634"/>
      <point x="735" y="644" type="curve" smooth="yes"/>
      <point x="796" y="655" type="line"/>
      <point x="796" y="673" type="line"/>
      <point x="456" y="673" type="line"/>
      <point x="456" y="655" type="line"/>
      <point x="517" y="644" type="line" smooth="yes"/>
      <point x="572" y="634"/>
      <point x="581" y="627"/>
      <point x="581" y="585" type="curve" smooth="yes"/>
      <point x="581" y="88" type="line" smooth="yes"/>
      <point x="581" y="46"/>
      <point x="572" y="39"/>
      <point x="517" y="29" type="curve" smooth="yes"/>
      <point x="456" y="18" type="line"/>
    </contour>
    <contour>
      <point x="40" y="0" type="line"/>
      <point x="380" y="0" type="line"/>
      <point x="380" y="18" type="line"/>
      <point x="319" y="29" type="line" smooth="yes"/>
      <point x="264" y="39"/>
      <point x="255" y="46"/>
      <point x="255" y="88" type="curve" smooth="yes"/>
      <point x="255" y="585" type="line" smooth="yes"/>
      <point x="255" y="627"/>
      <point x="264" y="634"/>
      <point x="319" y="644" type="curve" smooth="yes"/>
      <point x="380" y="655" type="line"/>
      <point x="380" y="673" type="line"/>
      <point x="40" y="673" type="line"/>
      <point x="40" y="655" type="line"/>
      <point x="101" y="644" type="line" smooth="yes"/>
      <point x="156" y="634"/>
      <point x="165" y="627"/>
      <point x="165" y="585" type="curve" smooth="yes"/>
      <point x="165" y="88" type="line" smooth="yes"/>
      <point x="165" y="46"/>
      <point x="156" y="39"/>
      <point x="101" y="29" type="curve" smooth="yes"/>
      <point x="40" y="18" type="line"/>
    </contour>
    <contour>
      <point x="230" y="341" type="line"/>
      <point x="614" y="341" type="line"/>
      <point x="611" y="369" type="line"/>
      <point x="226" y="369" type="line"/>
    </contour>
  </outline>
</glyph>
<glyph name="I" format="1">
  <advance width="420"/>
  <unicode hex="0049"/>
  <outline>
    <contour>
      <point x="40" y="0" type="line"/>
      <point x="380" y="0" type="line"/>
      <point x="380" y="18" type="line"/>
      <point x="319" y="29" type="line" smooth="yes"/>
      <point x="264" y="39"/>
      <point x="255" y="46"/>
      <point x="255" y="88" type="curve" smooth="yes"/>
      <point x="255" y="585" type="line" smooth="yes"/>
      <point x="255" y="627"/>
      <point x="264" y="634"/>
      <point x="319" y="644" type="curve" smooth="yes"/>
      <point x="380" y="655" type="line"/>
      <point x="380" y="673" type="line"/>
      <point x="40" y="673" type="line"/>
      <point x="40" y="655" type="line"/>
      <point x="101" y="644" type="line" smooth="yes"/>
      <point x="156" y="634"/>
      <point x="165" y="627"/>
      <point x="165" y="585" type="curve" smooth="yes"/>
      <point x="165" y="88" type="line" smooth="yes"/>
      <point x="165" y="46"/>
      <point x="156" y="39"/>
      <point x="101" y="29" type="curve" smooth="yes"/>
      <point x="40" y="18" type="line"/>
    </contour>
    <contour>
      <point x="210" y="690" type="move" name="topcase"/>
    </contour>
  </outline>
</glyph>
<glyph name="M" format="1">
  <advance width="961"/>
  <unicode hex="004D"/>
  <outline>
    <contour>
      <point x="456" y="-9" type="line"/>
      <point x="463" y="-9" type="line"/>
      <point x="698" y="561" type="line"/>
      <point x="708" y="65" type="line" smooth="yes"/>
      <point x="708" y="44"/>
      <point x="702" y="36"/>
      <point x="676" y="31" type="curve" smooth="yes"/>
      <point x="606" y="18" type="line"/>
      <point x="606" y="0" type="line"/>
      <point x="926" y="0" type="line"/>
      <point x="926" y="18" type="line"/>
      <point x="865" y="29" type="line" smooth="yes"/>
      <point x="810" y="39"/>
      <point x="802" y="46"/>
      <point x="801" y="88" type="curve" smooth="yes"/>
      <point x="788" y="578" type="line" smooth="yes"/>
      <point x="787" y="623"/>
      <point x="799" y="636"/>
      <point x="852" y="645" type="curve" smooth="yes"/>
      <point x="912" y="655" type="line"/>
      <point x="912" y="673" type="line"/>
      <point x="708" y="673" type="line"/>
      <point x="490" y="152" type="line"/>
      <point x="267" y="673" type="line"/>
      <point x="75" y="673" type="line"/>
      <point x="75" y="655" type="line"/>
      <point x="117" y="647" type="line" smooth="yes"/>
      <point x="170" y="636"/>
      <point x="183" y="621"/>
      <point x="181" y="579" type="curve" smooth="yes"/>
      <point x="160" y="89" type="line" smooth="yes"/>
      <point x="158" y="47"/>
      <point x="151" y="41"/>
      <point x="96" y="30" type="curve" smooth="yes"/>
      <point x="35" y="18" type="line"/>
      <point x="35" y="0" type="line"/>
      <point x="314" y="0" type="line"/>
      <point x="314" y="18" type="line"/>
      <point x="252" y="30" type="line" smooth="yes"/>
      <point x="197" y="41"/>
      <point x="186" y="48"/>
      <point x="188" y="89" type="curve" smooth="yes"/>
      <point x="211" y="580" type="line"/>
    </contour>
  </outline>
</glyph>
<glyph name="O" format="1">
  <advance width="804"/>
  <unicode hex="004F"/>
  <outline>
    <contour>
      <point x="401" y="-13" type="curve" smooth="yes"/>
      <point x="609" y="-13"/>
      <point x="759" y="138"/>
      <point x="759" y="340" type="curve" smooth="yes"/>
      <point x="759" y="528"/>
      <point x="609" y="681"/>
      <point x="401" y="681" type="curve" smooth="yes"/>
      <point x="195" y="681"/>
      <point x="45" y="530"/>
      <point x="45" y="327" type="curve" smooth="yes"/>
      <point x="45" y="139"/>
      <point x="195" y="-13"/>
    </contour>
    <contour>
      <point x="401" y="14" type="curve" smooth="yes"/>
      <point x="253" y="14"/>
      <point x="145" y="155"/>
      <point x="145" y="327" type="curve" smooth="yes"/>
      <point x="145" y="515"/>
      <point x="253" y="654"/>
      <point x="401" y="654" type="curve" smooth="yes"/>
      <point x="552" y="654"/>
      <point x="659" y="513"/>
      <point x="659" y="339" type="curve" smooth="yes"/>
      <point x="659" y="154"/>
      <point x="552" y="14"/>
    </contour>
    <contour>
      <point x="401" y="690" type="move" name="topcase"/>
    </contour>
  </outline>
</glyph>
<glyph name="X" format="1">
  <advance width="785"/>
  <unicode hex="0058"/>
  <outline>
    <contour>
      <point x="10" y="0" type="line"/>
      <point x="289" y="0" type="line"/>
      <point x="289" y="18" type="line"/>
      <point x="221" y="32" type="line" smooth="yes"/>
      <point x="189" y="38"/>
      <point x="184" y="55"/>
      <point x="203" y="81" type="curve" smooth="yes"/>
      <point x="371" y="298" type="line"/>
      <point x="521" y="96" type="line" smooth="yes"/>
      <point x="556" y="50"/>
      <point x="545" y="36"/>
      <point x="491" y="27" type="curve" smooth="yes"/>
      <point x="437" y="18" type="line"/>
      <point x="437" y="0" type="line"/>
      <point x="775" y="0" type="line"/>
      <point x="775" y="19" type="line"/>
      <point x="745" y="24" type="line" smooth="yes"/>
      <point x="685" y="34"/>
      <point x="653" y="60"/>
      <point x="604" y="127" type="curve" smooth="yes"/>
      <point x="433" y="360" type="line"/>
      <point x="614" y="589" type="line" smooth="yes"/>
      <point x="647" y="622"/>
      <point x="680" y="642"/>
      <point x="727" y="649" type="curve" smooth="yes"/>
      <point x="770" y="655" type="line"/>
      <point x="770" y="673" type="line"/>
      <point x="491" y="673" type="line"/>
      <point x="491" y="655" type="line"/>
      <point x="559" y="641" type="line" smooth="yes"/>
      <point x="593" y="635"/>
      <point x="596" y="612"/>
      <point x="577" y="588" type="curve" smooth="yes"/>
      <point x="416" y="384" type="line"/>
      <point x="277" y="580" type="line" smooth="yes"/>
      <point x="244" y="624"/>
      <point x="261" y="638"/>
      <point x="317" y="647" type="curve" smooth="yes"/>
      <point x="371" y="655" type="line"/>
      <point x="371" y="673" type="line"/>
      <point x="33" y="673" type="line"/>
      <point x="33" y="654" type="line"/>
      <point x="63" y="649" type="line" smooth="yes"/>
      <point x="120" y="639"/>
      <point x="144" y="619"/>
      <point x="172" y="580" type="curve" smooth="yes"/>
      <point x="354" y="322" type="line"/>
      <point x="167" y="80" type="line" smooth="yes"/>
      <point x="136" y="49"/>
      <point x="100" y="31"/>
      <point x="53" y="24" type="curve" smooth="yes"/>
      <point x="10" y="18" type="line"/>
    </contour>
  </outline>
</glyph>
<glyph name="Y" format="1">
  <advance width="710"/>
  <unicode hex="0059"/>
  <outline>
    <contour>
      <point x="329" y="305" type="line"/>
      <point x="398" y="321" type="line"/>
      <point x="572" y="588" type="line" smooth="yes"/>
      <point x="599" y="630"/>
      <point x="629" y="643"/>
      <point x="667" y="649" type="curve" smooth="yes"/>
      <point x="705" y="655" type="line"/>
      <point x="705" y="673" type="line"/>
      <point x="453" y="673" type="line"/>
      <point x="453" y="655" type="line"/>
      <point x="516" y="641" type="line" smooth="yes"/>
      <point x="550" y="633"/>
      <point x="552" y="616"/>
      <point x="533" y="587" type="curve" smooth="yes"/>
      <point x="382" y="352" type="line"/>
      <point x="400" y="352" type="line"/>
      <point x="232" y="580" type="line" smooth="yes"/>
      <point x="201" y="622"/>
      <point x="213" y="640"/>
      <point x="267" y="648" type="curve" smooth="yes"/>
      <point x="319" y="656" type="line"/>
      <point x="319" y="673" type="line"/>
      <point x="5" y="673" type="line"/>
      <point x="5" y="654" type="line"/>
      <point x="35" y="649" type="line" smooth="yes"/>
      <point x="70" y="643"/>
      <point x="87" y="631"/>
      <point x="107" y="604" type="curve" smooth="yes"/>
    </contour>
    <contour>
      <point x="192" y="0" type="line"/>
      <point x="532" y="0" type="line"/>
      <point x="532" y="18" type="line"/>
      <point x="471" y="29" type="line" smooth="yes"/>
      <point x="416" y="39"/>
      <point x="407" y="46"/>
      <point x="407" y="88" type="curve" smooth="yes"/>
      <point x="407" y="340" type="line"/>
      <point x="317" y="330" type="line"/>
      <point x="317" y="88" type="line" smooth="yes"/>
      <point x="317" y="46"/>
      <point x="308" y="39"/>
      <point x="253" y="29" type="curve" smooth="yes"/>
      <point x="192" y="18" type="line"/>
    </contour>
    <contour>
      <point x="379" y="690" type="move" name="topcase"/>
    </contour>
  </outline>
</glyph>
<glyph name="bracketleft" format="1">
  <advance width="295"/>
  <unicode hex="005B"/>
  <outline>
    <contour>
      <point x="75" y="-215" type="line"/>
      <point x="265" y="-215" type="line"/>
      <point x="265" y="-185" type="line"/>
      <point x="135" y="-185" type="line"/>
      <point x="135" y="714" type="line"/>
      <point x="265" y="714" type="line"/>
      <point x="265" y="744" type="line"/>
      <point x="75" y="744" type="line"/>
    </contour>
  </outline>
</glyph>
<glyph name="asciicircum" format="1">
  <advance width="516"/>
  <unicode hex="005E"/>
  <outline>
    <contour>
      <point x="40" y="325" type="line"/>
      <point x="98" y="325" type="line"/>
      <point x="269" y="604" type="line"/>
      <point x="247" y="604" type="line"/>
      <point x="418" y="325" type="line"/>
      <point x="476" y="325" type="line"/>
      <point x="282" y="651" type="line"/>
      <point x="234" y="651" type="line"/>
    </contour>
  </outline>
</glyph>
<glyph name="k" format="1">
  <advance width="522"/>
  <unicode hex="006B"/>
  <outline>
    <contour>
      <point x="37" y="0" type="line"/>
      <point x="240" y="0" type="line"/>
      <point x="240" y="15" type="line"/>
      <point x="198" y="26" type="line" smooth="yes"/>
      <point x="178" y="31"/>
      <point x="172" y="39"/>
      <point x="172" y="58" type="curve" smooth="yes"/>
      <point x="172" y="602" type="line" smooth="yes"/>
      <point x="172" y="648"/>
      <point x="173" y="676"/>
      <point x="184" y="706" type="curve"/>
      <point x="175" y="712" type="line"/>
      <point x="131" y="689"/>
      <point x="83" y="678"/>
      <point x="35" y="668" type="curve"/>
      <point x="35" y="658" type="line"/>
      <point x="81" y="646" type="line" smooth="yes"/>
      <point x="99" y="641"/>
      <point x="105" y="632"/>
      <point x="105" y="606" type="curve" smooth="yes"/>
      <point x="105" y="58" type="line" smooth="yes"/>
      <point x="105" y="39"/>
      <point x="99" y="31"/>
      <point x="79" y="26" type="curve" smooth="yes"/>
      <point x="37" y="15" type="line"/>
    </contour>
    <contour>
      <point x="299" y="0" type="line"/>
      <point x="502" y="0" type="line"/>
      <point x="502" y="16" type="line"/>
      <point x="469" y="24" type="line" smooth="yes"/>
      <point x="450" y="29"/>
      <point x="433" y="38"/>
      <point x="417" y="62" type="curve" smooth="yes"/>
      <point x="275" y="281" type="line"/>
      <point x="227" y="233" type="line"/>
      <point x="347" y="50" type="line" smooth="yes"/>
      <point x="352" y="41"/>
      <point x="355" y="27"/>
      <point x="339" y="23" type="curve" smooth="yes"/>
      <point x="299" y="15" type="line"/>
    </contour>
    <contour>
      <point x="161" y="139" type="line"/>
      <point x="387" y="381" type="line" smooth="yes"/>
      <point x="399" y="393"/>
      <point x="406" y="397"/>
      <point x="426" y="402" type="curve" smooth="yes"/>
      <point x="465" y="411" type="line"/>
      <point x="465" y="426" type="line"/>
      <point x="291" y="426" type="line"/>
      <point x="291" y="411" type="line"/>
      <point x="338" y="401" type="line" smooth="yes"/>
      <point x="350" y="398"/>
      <point x="351" y="386"/>
      <point x="345" y="379" type="curve" smooth="yes"/>
      <point x="136" y="154" type="line"/>
    </contour>
  </outline>
</glyph>
<glyph name="asciitilde" format="1">
  <advance width="530"/>
  <unicode hex="007E"/>
  <outline>
    <contour>
      <point x="97" y="292" type="line"/>
      <point x="108" y="328"/>
      <point x="127" y="338"/>
      <point x="156" y="338" type="curve" smooth="yes"/>
      <point x="184" y="338"/>
      <point x="217" y="326"/>
      <point x="251" y="314" type="curve" smooth="yes"/>
      <point x="287" y="301"/>
      <point x="326" y="289"/>
      <point x="362" y="289" type="curve" smooth="yes"/>
      <point x="409" y="289"/>
      <point x="451" y="312"/>
      <point x="465" y="371" type="curve"/>
      <point x="431" y="378" type="line"/>
      <point x="420" y="342"/>
      <point x="401" y="332"/>
      <point x="372" y="332" type="curve" smooth="yes"/>
      <point x="344" y="332"/>
      <point x="311" y="344"/>
      <point x="277" y="356" type="curve" smooth="yes"/>
      <point x="241" y="369"/>
      <point x="202" y="381"/>
      <point x="166" y="381" type="curve" smooth="yes"/>
      <point x="119" y="381"/>
      <point x="77" y="358"/>
      <point x="63" y="299" type="curve"/>
    </contour>
  </outline>
</glyph>
<glyph name="ordfeminine" format="1">
  <advance width="357"/>
  <unicode hex="00AA"/>
  <outline>
    <contour>
      <point x="124" y="372" type="curve" smooth="yes"/>
      <point x="159" y="372"/>
      <point x="201" y="405"/>
      <point x="231" y="430" type="curve"/>
      <point x="223" y="441" type="line"/>
      <point x="223" y="432" type="line" smooth="yes"/>
      <point x="223" y="404"/>
      <point x="230" y="372"/>
      <point x="266" y="372" type="curve" smooth="yes"/>
      <point x="285" y="372"/>
      <point x="319" y="389"/>
      <point x="337" y="403" type="curve"/>
      <point x="337" y="425" type="line"/>
      <point x="327" y="422"/>
      <point x="315" y="419"/>
      <point x="304" y="419" type="curve" smooth="yes"/>
      <point x="285" y="419"/>
      <point x="283" y="435"/>
      <point x="283" y="454" type="curve" smooth="yes"/>
      <point x="283" y="598" type="line" smooth="yes"/>
      <point x="283" y="665"/>
      <point x="243" y="715"/>
      <point x="164" y="715" type="curve" smooth="yes"/>
      <point x="102" y="715"/>
      <point x="39" y="672"/>
      <point x="39" y="619" type="curve" smooth="yes"/>
      <point x="39" y="592"/>
      <point x="58" y="579"/>
      <point x="76" y="579" type="curve" smooth="yes"/>
      <point x="96" y="579"/>
      <point x="117" y="598"/>
      <point x="117" y="616" type="curve" smooth="yes"/>
      <point x="117" y="625"/>
      <point x="111" y="634"/>
      <point x="106" y="641" type="curve" smooth="yes"/>
      <point x="103" y="647"/>
      <point x="99" y="652"/>
      <point x="99" y="657" type="curve" smooth="yes"/>
      <point x="99" y="679"/>
      <point x="121" y="693"/>
      <point x="151" y="693" type="curve" smooth="yes"/>
      <point x="198" y="693"/>
      <point x="220" y="656"/>
      <point x="220" y="613" type="curve" smooth="yes"/>
      <point x="220" y="599" type="line" smooth="yes"/>
      <point x="220" y="578"/>
      <point x="212" y="568"/>
      <point x="186" y="558" type="curve" smooth="yes"/>
      <point x="46" y="506" type="line" smooth="yes"/>
      <point x="37" y="503"/>
      <point x="35" y="496"/>
      <point x="35" y="479" type="curve" smooth="yes"/>
      <point x="35" y="426"/>
      <point x="79" y="372"/>
    </contour>
    <contour>
      <point x="150" y="415" type="curve" smooth="yes"/>
      <point x="127" y="415"/>
      <point x="99" y="442"/>
      <point x="99" y="471" type="curve" smooth="yes"/>
      <point x="99" y="487"/>
      <point x="100" y="494"/>
      <point x="106" y="497" type="curve" smooth="yes"/>
      <point x="214" y="541" type="line"/>
      <point x="217" y="543"/>
      <point x="220" y="541"/>
      <point x="220" y="537" type="curve" smooth="yes"/>
      <point x="220" y="472" type="line" smooth="yes"/>
      <point x="220" y="459"/>
      <point x="215" y="449"/>
      <point x="207" y="443" type="curve" smooth="yes"/>
      <point x="187" y="427"/>
      <point x="168" y="415"/>
    </contour>
  </outline>
</glyph>
<glyph name="degree" format="1">
  <advance width="345"/>
  <unicode hex="00B0"/>
  <outline>
    <contour>
      <point x="172" y="416" type="curve" smooth="yes"/>
      <point x="245" y="416"/>
      <point x="305" y="476"/>
      <point x="305" y="549" type="curve" smooth="yes"/>
      <point x="305" y="621"/>
      <point x="245" y="681"/>
      <point x="172" y="681" type="curve" smooth="yes"/>
      <point x="100" y="681"/>
      <point x="40" y="621"/>
      <point x="40" y="549" type="curve" smooth="yes"/>
      <point x="40" y="476"/>
      <point x="100" y="416"/>
    </contour>
    <contour>
      <point x="171" y="457" type="curve" smooth="yes"/>
      <point x="120" y="457"/>
      <point x="78" y="499"/>
      <point x="78" y="550" type="curve" smooth="yes"/>
      <point x="78" y="601"/>
      <point x="120" y="643"/>
      <point x="171" y="643" type="curve" smooth="yes"/>
      <point x="222" y="643"/>
      <point x="264" y="601"/>
      <point x="264" y="550" type="curve" smooth="yes"/>
      <point x="264" y="499"/>
      <point x="222" y="457"/>
    </contour>
  </outline>
</glyph>
<glyph name="threesuperior" format="1">
  <advance width="323"/>
  <unicode hex="00B3"/>
  <outline>
    <contour>
      <point x="123" y="345" type="curve" smooth="yes"/>
      <point x="204" y="345"/>
      <point x="278" y="384"/>
      <point x="278" y="459" type="curve" smooth="yes"/>
      <point x="278" y="502"/>
      <point x="239" y="542"/>
      <point x="172" y="546" type="curve"/>
      <point x="172" y="549" type="line"/>
      <point x="220" y="562"/>
      <point x="247" y="590"/>
      <point x="247" y="622" type="curve" smooth="yes"/>
      <point x="247" y="664"/>
      <point x="203" y="686"/>
      <point x="142" y="686" type="curve" smooth="yes"/>
      <point x="89" y="686"/>
      <point x="41" y="662"/>
      <point x="41" y="625" type="curve" smooth="yes"/>
      <point x="41" y="605"/>
      <point x="54" y="590"/>
      <point x="67" y="590" type="curve" smooth="yes"/>
      <point x="84" y="590"/>
      <point x="97" y="602"/>
      <point x="97" y="617" type="curve" smooth="yes"/>
      <point x="97" y="630"/>
      <point x="83" y="637"/>
      <point x="83" y="645" type="curve" smooth="yes"/>
      <point x="83" y="658"/>
      <point x="103" y="668"/>
      <point x="130" y="668" type="curve" smooth="yes"/>
      <point x="164" y="668"/>
      <point x="179" y="653"/>
      <point x="179" y="618" type="curve" smooth="yes"/>
      <point x="179" y="586"/>
      <point x="157" y="555"/>
      <point x="113" y="537" type="curve" smooth="yes"/>
      <point x="89" y="527" type="line"/>
      <point x="97" y="513" type="line"/>
      <point x="106" y="516"/>
      <point x="122" y="522"/>
      <point x="133" y="525" type="curve"/>
      <point x="190" y="522"/>
      <point x="203" y="493"/>
      <point x="203" y="446" type="curve" smooth="yes"/>
      <point x="203" y="382"/>
      <point x="169" y="363"/>
      <point x="128" y="363" type="curve" smooth="yes"/>
      <point x="98" y="363"/>
      <point x="71" y="373"/>
      <point x="71" y="385" type="curve" smooth="yes"/>
      <point x="71" y="393"/>
      <point x="86" y="399"/>
      <point x="86" y="416" type="curve" smooth="yes"/>
      <point x="86" y="431"/>
      <point x="75" y="443"/>
      <point x="59" y="443" type="curve" smooth="yes"/>
      <point x="42" y="443"/>
      <point x="30" y="428"/>
      <point x="30" y="406" type="curve" smooth="yes"/>
      <point x="30" y="370"/>
      <point x="72" y="345"/>
    </contour>
  </outline>
</glyph>
<glyph name="onesuperior" format="1">
  <advance width="272"/>
  <unicode hex="00B9"/>
  <outline>
    <contour>
      <point x="35" y="349" type="line"/>
      <point x="242" y="349" type="line"/>
      <point x="242" y="364" type="line"/>
      <point x="218" y="368" type="line" smooth="yes"/>
      <point x="171" y="375"/>
      <point x="171" y="376"/>
      <point x="171" y="406" type="curve" smooth="yes"/>
      <point x="171" y="691" type="line"/>
      <point x="43" y="672" type="line"/>
      <point x="43" y="657" type="line"/>
      <point x="92" y="659" type="line" smooth="yes"/>
      <point x="102" y="659"/>
      <point x="106" y="656"/>
      <point x="106" y="647" type="curve" smooth="yes"/>
      <point x="106" y="406" type="line" smooth="yes"/>
      <point x="106" y="376"/>
      <point x="106" y="375"/>
      <point x="59" y="368" type="curve" smooth="yes"/>
      <point x="35" y="364" type="line"/>
    </contour>
  </outline>
</glyph>
<glyph name="onequarter" format="1">
  <advance width="571"/>
  <unicode hex="00BC"/>
  <outline>
    <contour>
      <point x="410" y="0" type="line"/>
      <point x="470" y="0" type="line"/>
      <point x="470" y="342" type="line"/>
      <point x="454" y="342" type="line"/>
      <point x="244" y="72" type="line"/>
      <point x="244" y="63" type="line"/>
      <point x="509" y="63" type="line"/>
      <point x="521" y="149" type="line"/>
      <point x="509" y="149" type="line"/>
      <point x="502" y="131" type="line" smooth="yes"/>
      <point x="497" y="119"/>
      <point x="495" y="116"/>
      <point x="481" y="116" type="curve" smooth="yes"/>
      <point x="297" y="116" type="line"/>
      <point x="308" y="109" type="line"/>
      <point x="436" y="277" type="line"/>
      <point x="410" y="256" type="line"/>
    </contour>
    <component base="onesuperior"/>
    <component base="fraction" xOffset="105"/>
  </outline>
</glyph>
<glyph name="threequarters" format="1">
  <advance width="591"/>
  <unicode hex="00BE"/>
  <outline>
    <contour>
      <point x="420" y="0" type="line"/>
      <point x="480" y="0" type="line"/>
      <point x="480" y="342" type="line"/>
      <point x="464" y="342" type="line"/>
      <point x="254" y="72" type="line"/>
      <point x="254" y="63" type="line"/>
      <point x="519" y="63" type="line"/>
      <point x="531" y="149" type="line"/>
      <point x="519" y="149" type="line"/>
      <point x="512" y="131" type="line" smooth="yes"/>
      <point x="507" y="119"/>
      <point x="505" y="116"/>
      <point x="491" y="116" type="curve" smooth="yes"/>
      <point x="307" y="116" type="line"/>
      <point x="318" y="109" type="line"/>
      <point x="446" y="277" type="line"/>
      <point x="420" y="256" type="line"/>
    </contour>
    <component base="fraction" xOffset="115"/>
    <component base="threesuperior"/>
  </outline>
</glyph>
<glyph name="Oslash" format="1">
  <advance width="804"/>
  <unicode hex="00D8"/>
  <outline>
    <contour>
      <point x="71" y="-16" type="line"/>
      <point x="758" y="654" type="line"/>
      <point x="731" y="681" type="line"/>
      <point x="44" y="11" type="line"/>
    </contour>
    <component base="O"/>
  </outline>
</glyph>
<glyph name="Thorn" format="1">
  <advance width="659"/>
  <unicode hex="00DE"/>
  <outline>
    <contour>
      <point x="40" y="0" type="line"/>
      <point x="380" y="0" type="line"/>
      <point x="380" y="18" type="line"/>
      <point x="319" y="29" type="line" smooth="yes"/>
      <point x="264" y="39"/>
      <point x="255" y="46"/>
      <point x="255" y="88" type="curve" smooth="yes"/>
      <point x="255" y="519" type="line"/>
      <point x="341" y="519" type="line" smooth="yes"/>
      <point x="456" y="519"/>
      <point x="526" y="473"/>
      <point x="526" y="356" type="curve" smooth="yes"/>
      <point x="526" y="235"/>
      <point x="446" y="192"/>
      <point x="353" y="187" type="curve"/>
      <point x="352" y="180" type="line"/>
      <point x="450" y="153"/>
      <point x="629" y="207"/>
      <point x="629" y="356" type="curve" smooth="yes"/>
      <point x="629" y="467"/>
      <point x="521" y="543"/>
      <point x="357" y="543" type="curve" smooth="yes"/>
      <point x="255" y="543" type="line"/>
      <point x="255" y="585" type="line" smooth="yes"/>
      <point x="255" y="627"/>
      <point x="264" y="634"/>
      <point x="319" y="644" type="curve" smooth="yes"/>
      <point x="380" y="655" type="line"/>
      <point x="380" y="673" type="line"/>
      <point x="40" y="673" type="line"/>
      <point x="40" y="655" type="line"/>
      <point x="101" y="644" type="line" smooth="yes"/>
      <point x="156" y="634"/>
      <point x="165" y="627"/>
      <point x="165" y="585" type="curve" smooth="yes"/>
      <point x="165" y="88" type="line" smooth="yes"/>
      <point x="165" y="46"/>
      <point x="156" y="39"/>
      <point x="101" y="29" type="curve" smooth="yes"/>
      <point x="40" y="18" type="line"/>
    </contour>
  </outline>
</glyph>
<glyph name="eth" format="1">
  <advance width="518"/>
  <unicode hex="00F0"/>
  <outline>
    <contour>
      <point x="243" y="472" type="line"/>
      <point x="513" y="592" type="line"/>
      <point x="501" y="618" type="line"/>
      <point x="231" y="499" type="line"/>
    </contour>
    <component base="partialdiff" xOffset="-10"/>
  </outline>
</glyph>
<glyph name="oslash" format="1">
  <advance width="512"/>
  <unicode hex="00F8"/>
  <outline>
    <contour>
      <point x="66" y="-5" type="line"/>
      <point x="462" y="418" type="line"/>
      <point x="439" y="438" type="line"/>
      <point x="45" y="15" type="line"/>
    </contour>
    <component base="o" xOffset="4"/>
  </outline>
</glyph>
<glyph name="Hbar" format="1">
  <advance width="836"/>
  <unicode hex="0126"/>
  <outline>
    <contour>
      <point x="75" y="490" type="line"/>
      <point x="760" y="490" type="line"/>
      <point x="760" y="528" type="line"/>
      <point x="75" y="528" type="line"/>
    </contour>
    <component base="H"/>
  </outline>
</glyph>
<glyph name="hbar" format="1">
  <advance width="534"/>
  <unicode hex="0127"/>
  <outline>
    <contour>
      <point x="35" y="0" type="line"/>
      <point x="238" y="0" type="line"/>
      <point x="238" y="15" type="line"/>
      <point x="196" y="26" type="line" smooth="yes"/>
      <point x="176" y="31"/>
      <point x="170" y="39"/>
      <point x="170" y="58" type="curve" smooth="yes"/>
      <point x="172" y="602" type="line" smooth="yes"/>
      <point x="172" y="648"/>
      <point x="173" y="676"/>
      <point x="184" y="706" type="curve"/>
      <point x="175" y="712" type="line"/>
      <point x="131" y="689"/>
      <point x="83" y="678"/>
      <point x="35" y="668" type="curve"/>
      <point x="35" y="658" type="line"/>
      <point x="79" y="646" type="line" smooth="yes"/>
      <point x="97" y="641"/>
      <point x="103" y="632"/>
      <point x="103" y="606" type="curve" smooth="yes"/>
      <point x="103" y="58" type="line" smooth="yes"/>
      <point x="103" y="39"/>
      <point x="97" y="31"/>
      <point x="77" y="26" type="curve" smooth="yes"/>
      <point x="35" y="15" type="line"/>
    </contour>
    <contour>
      <point x="316" y="0" type="line"/>
      <point x="519" y="0" type="line"/>
      <point x="519" y="15" type="line"/>
      <point x="477" y="26" type="line" smooth="yes"/>
      <point x="457" y="31"/>
      <point x="451" y="39"/>
      <point x="451" y="58" type="curve" smooth="yes"/>
      <point x="451" y="285" type="line" smooth="yes"/>
      <point x="451" y="375"/>
      <point x="396" y="424"/>
      <point x="302" y="424" type="curve" smooth="yes"/>
      <point x="298" y="424"/>
      <point x="292" y="422"/>
      <point x="286" y="419" type="curve" smooth="yes"/>
      <point x="253" y="402"/>
      <point x="201" y="374"/>
      <point x="169" y="361" type="curve"/>
      <point x="144" y="361" type="line"/>
      <point x="171" y="262" type="line"/>
      <point x="171" y="321"/>
      <point x="216" y="371"/>
      <point x="281" y="371" type="curve" smooth="yes"/>
      <point x="347" y="371"/>
      <point x="384" y="336"/>
      <point x="384" y="272" type="curve" smooth="yes"/>
      <point x="384" y="58" type="line" smooth="yes"/>
      <point x="384" y="39"/>
      <point x="378" y="31"/>
      <point x="358" y="26" type="curve" smooth="yes"/>
      <point x="316" y="15" type="line"/>
    </contour>
    <contour>
      <point x="35" y="536" type="line"/>
      <point x="361" y="536" type="line"/>
      <point x="361" y="566" type="line"/>
      <point x="35" y="566" type="line"/>
    </contour>
  </outline>
</glyph>
<glyph name="Lslash" format="1">
  <advance width="704"/>
  <unicode hex="0141"/>
  <outline>
    <contour>
      <point x="40" y="208" type="line"/>
      <point x="535" y="365" type="line"/>
      <point x="535" y="409" type="line"/>
      <point x="40" y="252" type="line"/>
    </contour>
    <component base="L"/>
  </outline>
</glyph>
<glyph name="Eng" format="1">
  <advance width="856"/>
  <unicode hex="014A"/>
  <outline>
    <contour>
      <point x="583" y="-228" type="curve" smooth="yes"/>
      <point x="632" y="-228"/>
      <point x="661" y="-199"/>
      <point x="678" y="-173" type="curve" smooth="yes"/>
      <point x="690" y="-154"/>
      <point x="693" y="-143"/>
      <point x="706" y="-143" type="curve"/>
      <point x="706" y="581" type="line" smooth="yes"/>
      <point x="706" y="623"/>
      <point x="715" y="634"/>
      <point x="770" y="644" type="curve" smooth="yes"/>
      <point x="831" y="655" type="line"/>
      <point x="831" y="673" type="line"/>
      <point x="552" y="673" type="line"/>
      <point x="552" y="655" type="line"/>
      <point x="613" y="644" type="line" smooth="yes"/>
      <point x="668" y="634"/>
      <point x="677" y="620"/>
      <point x="677" y="578" type="curve"/>
      <point x="678" y="144" type="line"/>
      <point x="209" y="673" type="line"/>
      <point x="40" y="673" type="line"/>
      <point x="40" y="656" type="line"/>
      <point x="87" y="647" type="line" smooth="yes"/>
      <point x="162" y="633"/>
      <point x="166" y="624"/>
      <point x="166" y="578" type="curve" smooth="yes"/>
      <point x="166" y="92" type="line" smooth="yes"/>
      <point x="166" y="50"/>
      <point x="157" y="39"/>
      <point x="102" y="29" type="curve" smooth="yes"/>
      <point x="41" y="18" type="line"/>
      <point x="41" y="0" type="line"/>
      <point x="320" y="0" type="line"/>
      <point x="320" y="18" type="line"/>
      <point x="259" y="29" type="line" smooth="yes"/>
      <point x="204" y="39"/>
      <point x="195" y="53"/>
      <point x="195" y="95" type="curve" smooth="yes"/>
      <point x="195" y="557" type="line"/>
      <point x="676" y="0" type="line"/>
      <point x="676" y="-69" type="line" smooth="yes"/>
      <point x="676" y="-152"/>
      <point x="649" y="-204"/>
      <point x="584" y="-204" type="curve" smooth="yes"/>
      <point x="554" y="-204"/>
      <point x="534" y="-190"/>
      <point x="534" y="-179" type="curve" smooth="yes"/>
      <point x="534" y="-178"/>
      <point x="535" y="-177"/>
      <point x="540" y="-177" type="curve" smooth="yes"/>
      <point x="567" y="-177"/>
      <point x="586" y="-151"/>
      <point x="586" y="-125" type="curve" smooth="yes"/>
      <point x="586" y="-97"/>
      <point x="568" y="-69"/>
      <point x="532" y="-69" type="curve" smooth="yes"/>
      <point x="504" y="-69"/>
      <point x="476" y="-88"/>
      <point x="476" y="-127" type="curve" smooth="yes"/>
      <point x="476" y="-173"/>
      <point x="521" y="-228"/>
    </contour>
  </outline>
</glyph>
<glyph name="Tbar" format="1">
  <advance width="694"/>
  <unicode hex="0166"/>
  <outline>
    <contour>
      <point x="137" y="322" type="line"/>
      <point x="557" y="322" type="line"/>
      <point x="557" y="360" type="line"/>
      <point x="137" y="360" type="line"/>
    </contour>
    <component base="T"/>
  </outline>
</glyph>
<glyph name="tbar" format="1">
  <advance width="342"/>
  <unicode hex="0167"/>
  <outline>
    <contour>
      <point x="32" y="223" type="line"/>
      <point x="302" y="223" type="line"/>
      <point x="302" y="261" type="line"/>
      <point x="32" y="261" type="line"/>
    </contour>
    <component base="t" xOffset="7"/>
  </outline>
</glyph>
<glyph name="florin" format="1">
  <advance width="474"/>
  <unicode hex="0192"/>
  <outline>
    <contour>
      <point x="-71" y="-247" type="curve" smooth="yes"/>
      <point x="-9" y="-247"/>
      <point x="28" y="-209"/>
      <point x="56" y="-178" type="curve" smooth="yes"/>
      <point x="75" y="-157"/>
      <point x="90" y="-138"/>
      <point x="104" y="-138" type="curve"/>
      <point x="311" y="580" type="line" smooth="yes"/>
      <point x="329" y="643"/>
      <point x="348" y="685"/>
      <point x="385" y="685" type="curve" smooth="yes"/>
      <point x="403" y="685"/>
      <point x="413" y="667"/>
      <point x="421" y="647" type="curve" smooth="yes"/>
      <point x="428" y="629"/>
      <point x="439" y="610"/>
      <point x="458" y="610" type="curve" smooth="yes"/>
      <point x="479" y="610"/>
      <point x="494" y="621"/>
      <point x="494" y="643" type="curve" smooth="yes"/>
      <point x="494" y="680"/>
      <point x="454" y="711"/>
      <point x="393" y="711" type="curve" smooth="yes"/>
      <point x="287" y="711"/>
      <point x="244" y="621"/>
      <point x="224" y="552" type="curve" smooth="yes"/>
      <point x="38" y="-100" type="line" smooth="yes"/>
      <point x="12" y="-190"/>
      <point x="-29" y="-224"/>
      <point x="-62" y="-224" type="curve" smooth="yes"/>
      <point x="-78" y="-224"/>
      <point x="-91" y="-217"/>
      <point x="-91" y="-195" type="curve" smooth="yes"/>
      <point x="-91" y="-153"/>
      <point x="-110" y="-143"/>
      <point x="-133" y="-143" type="curve" smooth="yes"/>
      <point x="-155" y="-143"/>
      <point x="-175" y="-156"/>
      <point x="-175" y="-183" type="curve" smooth="yes"/>
      <point x="-175" y="-218"/>
      <point x="-122" y="-247"/>
    </contour>
    <contour>
      <point x="107" y="396" type="line"/>
      <point x="339" y="396" type="line"/>
      <point x="339" y="426" type="line"/>
      <point x="339" y="426"/>
      <point x="228" y="426"/>
      <point x="228" y="426" type="curve" smooth="yes"/>
      <point x="228" y="426"/>
      <point x="219" y="534"/>
      <point x="219" y="534" type="curve"/>
      <point x="197" y="457"/>
      <point x="174" y="426"/>
      <point x="130" y="426" type="curve" smooth="yes"/>
      <point x="107" y="426" type="line"/>
    </contour>
  </outline>
</glyph>
<glyph name="jdotless" format="1">
  <advance width="258"/>
  <unicode hex="0237"/>
  <outline>
    <contour>
      <point x="19" y="-259" type="curve" smooth="yes"/>
      <point x="79" y="-259"/>
      <point x="122" y="-213"/>
      <point x="151" y="-139" type="curve" smooth="yes"/>
      <point x="154" y="-131"/>
      <point x="159" y="-128"/>
      <point x="167" y="-128" type="curve"/>
      <point x="167" y="328" type="line" smooth="yes"/>
      <point x="167" y="374"/>
      <point x="168" y="402"/>
      <point x="179" y="432" type="curve"/>
      <point x="170" y="438" type="line"/>
      <point x="126" y="415"/>
      <point x="81" y="404"/>
      <point x="33" y="394" type="curve"/>
      <point x="33" y="384" type="line"/>
      <point x="76" y="372" type="line" smooth="yes"/>
      <point x="94" y="367"/>
      <point x="100" y="358"/>
      <point x="100" y="332" type="curve" smooth="yes"/>
      <point x="100" y="-137" type="line" smooth="yes"/>
      <point x="100" y="-188"/>
      <point x="79" y="-220"/>
      <point x="58" y="-220" type="curve" smooth="yes"/>
      <point x="51" y="-220"/>
      <point x="49" y="-218"/>
      <point x="49" y="-214" type="curve" smooth="yes"/>
      <point x="49" y="-211"/>
      <point x="50" y="-208"/>
      <point x="50" y="-203" type="curve" smooth="yes"/>
      <point x="50" y="-179"/>
      <point x="33" y="-164"/>
      <point x="5" y="-164" type="curve" smooth="yes"/>
      <point x="-25" y="-164"/>
      <point x="-40" y="-186"/>
      <point x="-40" y="-210" type="curve" smooth="yes"/>
      <point x="-40" y="-237"/>
      <point x="-20" y="-259"/>
    </contour>
    <contour>
      <point x="132" y="470" type="move" name="top"/>
    </contour>
  </outline>
</glyph>
<glyph name="uni02C9" format="1">
  <advance width="530"/>
  <unicode hex="02C9"/>
  <outline>
    <contour>
      <point x="115" y="599" type="line"/>
      <point x="415" y="599" type="line"/>
      <point x="415" y="637" type="line"/>
      <point x="115" y="637" type="line"/>
    </contour>
    <contour>
      <point x="262" y="470" type="move" name="_top"/>
    </contour>
  </outline>
</glyph>
<glyph name="gravecomb" format="1">
  <advance width="530"/>
  <unicode hex="0300"/>
  <outline>
    <component base="acute" xScale="-1" xOffset="530"/>
    <contour>
      <point x="282" y="470" type="move" name="_top"/>
    </contour>
  </outline>
</glyph>
<glyph name="acutecomb" format="1">
  <advance width="530"/>
  <unicode hex="0301"/>
  <outline>
    <contour>
      <point x="191" y="543" type="line"/>
      <point x="338" y="663" type="line" smooth="yes"/>
      <point x="345" y="669"/>
      <point x="356" y="676"/>
      <point x="356" y="694" type="curve" smooth="yes"/>
      <point x="356" y="713"/>
      <point x="341" y="728"/>
      <point x="322" y="728" type="curve" smooth="yes"/>
      <point x="313" y="728"/>
      <point x="302" y="723"/>
      <point x="296" y="715" type="curve" smooth="yes"/>
      <point x="173" y="559" type="line"/>
    </contour>
    <contour>
      <point x="252" y="470" type="move" name="_top"/>
    </contour>
  </outline>
</glyph>
<glyph name="circumflexcomb" format="1">
  <advance width="530"/>
  <unicode hex="0302"/>
  <outline>
    <component base="caroncomb" xScale="-1" yScale="-1" xOffset="530" yOffset="1246"/>
    <contour>
      <point x="265" y="470" type="move" name="_top"/>
    </contour>
  </outline>
</glyph>
<glyph name="tildecomb" format="1">
  <advance width="530"/>
  <unicode hex="0303"/>
  <outline>
    <contour>
      <point x="120" y="517" type="line"/>
      <point x="158" y="551" type="line" smooth="yes"/>
      <point x="168" y="560"/>
      <point x="173" y="561"/>
      <point x="185" y="562" type="curve" smooth="yes"/>
      <point x="361" y="576" type="line"/>
      <point x="422" y="669" type="line"/>
      <point x="410" y="677" type="line"/>
      <point x="373" y="643" type="line" smooth="yes"/>
      <point x="366" y="637"/>
      <point x="361" y="635"/>
      <point x="351" y="634" type="curve" smooth="yes"/>
      <point x="173" y="621" type="line"/>
      <point x="109" y="526" type="line"/>
    </contour>
    <contour>
      <point x="253" y="470" type="move" name="_top"/>
    </contour>
  </outline>
</glyph>
<glyph name="macroncomb" format="1">
  <advance width="530"/>
  <unicode hex="0304"/>
  <outline>
    <component base="uni02C9"/>
    <contour>
      <point x="265" y="470" type="move" name="_top"/>
    </contour>
  </outline>
</glyph>
<glyph name="dotaccentcomb" format="1">
  <advance width="530"/>
  <unicode hex="0307"/>
  <outline>
    <contour>
      <point x="264" y="562" type="curve" smooth="yes"/>
      <point x="296" y="562"/>
      <point x="322" y="588"/>
      <point x="322" y="618" type="curve" smooth="yes"/>
      <point x="322" y="650"/>
      <point x="296" y="676"/>
      <point x="264" y="676" type="curve" smooth="yes"/>
      <point x="234" y="676"/>
      <point x="208" y="650"/>
      <point x="208" y="618" type="curve" smooth="yes"/>
      <point x="208" y="588"/>
      <point x="234" y="562"/>
    </contour>
    <contour>
      <point x="264" y="470" type="move" name="_top"/>
    </contour>
  </outline>
</glyph>
<glyph name="dieresiscomb" format="1">
  <advance width="530"/>
  <unicode hex="0308"/>
  <outline>
    <contour>
      <point x="114" y="622" type="curve" smooth="yes"/>
      <point x="114" y="595"/>
      <point x="138" y="571"/>
      <point x="165" y="571" type="curve" smooth="yes"/>
      <point x="194" y="571"/>
      <point x="218" y="595"/>
      <point x="218" y="622" type="curve" smooth="yes"/>
      <point x="218" y="651"/>
      <point x="194" y="675"/>
      <point x="165" y="675" type="curve" smooth="yes"/>
      <point x="138" y="675"/>
      <point x="114" y="651"/>
    </contour>
    <contour>
      <point x="313" y="622" type="curve" smooth="yes"/>
      <point x="313" y="595"/>
      <point x="337" y="571"/>
      <point x="364" y="571" type="curve" smooth="yes"/>
      <point x="393" y="571"/>
      <point x="417" y="595"/>
      <point x="417" y="622" type="curve" smooth="yes"/>
      <point x="417" y="651"/>
      <point x="393" y="675"/>
      <point x="364" y="675" type="curve" smooth="yes"/>
      <point x="337" y="675"/>
      <point x="313" y="651"/>
    </contour>
    <contour>
      <point x="265" y="470" type="move" name="_top"/>
    </contour>
  </outline>
</glyph>
<glyph name="hungarumlautcomb" format="1">
  <advance width="530"/>
  <unicode hex="030B"/>
  <outline>
    <contour>
      <point x="114" y="543" type="line"/>
      <point x="261" y="663" type="line" smooth="yes"/>
      <point x="268" y="669"/>
      <point x="279" y="676"/>
      <point x="279" y="694" type="curve" smooth="yes"/>
      <point x="279" y="713"/>
      <point x="264" y="728"/>
      <point x="245" y="728" type="curve" smooth="yes"/>
      <point x="236" y="728"/>
      <point x="225" y="723"/>
      <point x="219" y="715" type="curve" smooth="yes"/>
      <point x="96" y="559" type="line"/>
    </contour>
    <contour>
      <point x="269" y="543" type="line"/>
      <point x="416" y="663" type="line" smooth="yes"/>
      <point x="423" y="669"/>
      <point x="434" y="676"/>
      <point x="434" y="694" type="curve" smooth="yes"/>
      <point x="434" y="713"/>
      <point x="419" y="728"/>
      <point x="400" y="728" type="curve" smooth="yes"/>
      <point x="391" y="728"/>
      <point x="380" y="723"/>
      <point x="374" y="715" type="curve" smooth="yes"/>
      <point x="251" y="559" type="line"/>
    </contour>
    <contour>
      <point x="212" y="470" type="move" name="_top"/>
    </contour>
  </outline>
</glyph>
<glyph name="caroncomb" format="1">
  <advance width="530"/>
  <unicode hex="030C"/>
  <outline>
    <contour>
      <point x="260" y="539" type="line"/>
      <point x="270" y="539" type="line"/>
      <point x="402" y="678" type="line"/>
      <point x="389" y="691" type="line"/>
      <point x="264" y="615" type="line"/>
      <point x="141" y="692" type="line"/>
      <point x="128" y="679" type="line"/>
    </contour>
    <contour>
      <point x="264" y="470" type="move" name="_top"/>
    </contour>
  </outline>
</glyph>
<glyph name="commaturnedabovecomb" format="1">
  <advance width="530"/>
  <unicode hex="0312"/>
  <outline>
    <component base="commaaccentcomb" xScale="-1" yScale="-1" xOffset="530" yOffset="477"/>
    <contour>
      <point x="265" y="470" type="move" name="_top"/>
    </contour>
  </outline>
</glyph>
<glyph name="commaaccentcomb" format="1">
  <advance width="530"/>
  <unicode hex="0326"/>
  <outline>
    <contour>
      <point x="189" y="-249" type="line"/>
      <point x="289" y="-246"/>
      <point x="348" y="-186"/>
      <point x="348" y="-125" type="curve" smooth="yes"/>
      <point x="348" y="-81"/>
      <point x="301" y="-35"/>
      <point x="237" y="-35" type="curve"/>
      <point x="222" y="-66"/>
      <point x="204" y="-79"/>
      <point x="181" y="-90" type="curve"/>
      <point x="181" y="-111" type="line"/>
      <point x="188" y="-110"/>
      <point x="194" y="-110"/>
      <point x="200" y="-110" type="curve" smooth="yes"/>
      <point x="256" y="-110"/>
      <point x="283" y="-136"/>
      <point x="283" y="-166" type="curve" smooth="yes"/>
      <point x="283" y="-198"/>
      <point x="252" y="-230"/>
      <point x="189" y="-232" type="curve"/>
    </contour>
  </outline>
</glyph>
<glyph name="cedillacomb" format="1">
  <advance width="530"/>
  <unicode hex="0327"/>
  <outline>
    <contour>
      <point x="167" y="-247" type="line"/>
      <point x="269" y="-241"/>
      <point x="364" y="-210"/>
      <point x="364" y="-122" type="curve" smooth="yes"/>
      <point x="364" y="-72"/>
      <point x="312" y="-50"/>
      <point x="244" y="-42" type="curve"/>
      <point x="255" y="0" type="line"/>
      <point x="223" y="0" type="line"/>
      <point x="196" y="-94" type="line"/>
      <point x="267" y="-96"/>
      <point x="298" y="-118"/>
      <point x="298" y="-155" type="curve" smooth="yes"/>
      <point x="298" y="-202"/>
      <point x="235" y="-218"/>
      <point x="167" y="-221" type="curve"/>
    </contour>
    <contour>
      <point x="274" y="-53" type="move" name="_bottom"/>
    </contour>
  </outline>
</glyph>
<glyph name="ogonekcomb" format="1">
  <advance width="530"/>
  <unicode hex="0328"/>
  <outline>
    <contour>
      <point x="255" y="-225" type="curve" smooth="yes"/>
      <point x="293" y="-225"/>
      <point x="342" y="-198"/>
      <point x="381" y="-158" type="curve"/>
      <point x="369" y="-144" type="line"/>
      <point x="340" y="-163"/>
      <point x="311" y="-181"/>
      <point x="281" y="-181" type="curve" smooth="yes"/>
      <point x="245" y="-181"/>
      <point x="217" y="-160"/>
      <point x="217" y="-104" type="curve" smooth="yes"/>
      <point x="217" y="-49"/>
      <point x="283" y="-10"/>
      <point x="327" y="5" type="curve"/>
      <point x="287" y="12" type="line"/>
      <point x="232" y="-7"/>
      <point x="148" y="-51"/>
      <point x="148" y="-102" type="curve" smooth="yes"/>
      <point x="148" y="-166"/>
      <point x="197" y="-225"/>
    </contour>
    <contour>
      <point x="274" y="-50" type="move" name="_bottom"/>
    </contour>
  </outline>
</glyph>
<glyph name="Omega" format="1">
  <advance width="806"/>
  <unicode hex="03A9"/>
  <outline>
    <contour>
      <point x="63" y="0" type="line"/>
      <point x="315" y="0" type="line"/>
      <point x="327" y="11" type="line"/>
      <point x="259" y="81"/>
      <point x="198" y="208"/>
      <point x="198" y="372" type="curve" smooth="yes"/>
      <point x="198" y="533"/>
      <point x="267" y="654"/>
      <point x="403" y="654" type="curve" smooth="yes"/>
      <point x="539" y="654"/>
      <point x="608" y="533"/>
      <point x="608" y="372" type="curve" smooth="yes"/>
      <point x="608" y="208"/>
      <point x="547" y="81"/>
      <point x="479" y="11" type="curve"/>
      <point x="491" y="0" type="line"/>
      <point x="743" y="0" type="line"/>
      <point x="771" y="175" type="line"/>
      <point x="753" y="175" type="line"/>
      <point x="742" y="141" type="line" smooth="yes"/>
      <point x="726" y="93"/>
      <point x="719" y="85"/>
      <point x="682" y="85" type="curve" smooth="yes"/>
      <point x="554" y="85" type="line"/>
      <point x="627" y="138"/>
      <point x="710" y="243"/>
      <point x="710" y="373" type="curve" smooth="yes"/>
      <point x="710" y="543"/>
      <point x="581" y="681"/>
      <point x="403" y="681" type="curve" smooth="yes"/>
      <point x="225" y="681"/>
      <point x="96" y="543"/>
      <point x="96" y="373" type="curve" smooth="yes"/>
      <point x="96" y="243"/>
      <point x="179" y="138"/>
      <point x="252" y="85" type="curve"/>
      <point x="124" y="85" type="line" smooth="yes"/>
      <point x="87" y="85"/>
      <point x="80" y="93"/>
      <point x="64" y="141" type="curve" smooth="yes"/>
      <point x="53" y="175" type="line"/>
      <point x="35" y="175" type="line"/>
    </contour>
  </outline>
</glyph>
<glyph name="pi" format="1">
  <advance width="539"/>
  <unicode hex="03C0"/>
  <outline>
    <contour>
      <point x="37" y="321" type="line"/>
      <point x="79" y="356"/>
      <point x="121" y="365"/>
      <point x="164" y="365" type="curve" smooth="yes"/>
      <point x="486" y="365" type="line"/>
      <point x="504" y="475" type="line"/>
      <point x="480" y="475" type="line"/>
      <point x="474" y="452" type="line" smooth="yes"/>
      <point x="469" y="432"/>
      <point x="461" y="426"/>
      <point x="442" y="426" type="curve" smooth="yes"/>
      <point x="190" y="426" type="line" smooth="yes"/>
      <point x="138" y="426"/>
      <point x="74" y="402"/>
      <point x="25" y="331" type="curve"/>
    </contour>
    <contour>
      <point x="72" y="0" type="line"/>
      <point x="150" y="0" type="line"/>
      <point x="199" y="52"/>
      <point x="204" y="252"/>
      <point x="208" y="372" type="curve"/>
      <point x="178" y="377" type="line"/>
      <point x="168" y="248"/>
      <point x="154" y="72"/>
      <point x="66" y="19" type="curve"/>
    </contour>
    <contour>
      <point x="402" y="-7" type="curve" smooth="yes"/>
      <point x="426" y="-7"/>
      <point x="471" y="12"/>
      <point x="496" y="28" type="curve"/>
      <point x="496" y="47" type="line"/>
      <point x="487" y="44"/>
      <point x="478" y="43"/>
      <point x="471" y="43" type="curve" smooth="yes"/>
      <point x="435" y="43"/>
      <point x="409" y="80"/>
      <point x="409" y="219" type="curve" smooth="yes"/>
      <point x="409" y="261"/>
      <point x="412" y="312"/>
      <point x="419" y="374" type="curve"/>
      <point x="375" y="374" type="line"/>
      <point x="363" y="271"/>
      <point x="355" y="195"/>
      <point x="355" y="139" type="curve" smooth="yes"/>
      <point x="355" y="16"/>
      <point x="371" y="-7"/>
    </contour>
  </outline>
</glyph>
<glyph name="daggerdbl" format="1">
  <advance width="555"/>
  <unicode hex="2021"/>
  <outline>
    <contour>
      <point x="276" y="-196" type="curve" smooth="yes"/>
      <point x="292" y="-196"/>
      <point x="327" y="-184"/>
      <point x="327" y="-149" type="curve" smooth="yes"/>
      <point x="327" y="-122"/>
      <point x="318" y="-95"/>
      <point x="308" y="-64" type="curve" smooth="yes"/>
      <point x="297" y="-29"/>
      <point x="286" y="9"/>
      <point x="286" y="55" type="curve" smooth="yes"/>
      <point x="286" y="74" type="line"/>
      <point x="289" y="74" type="line" smooth="yes"/>
      <point x="329" y="74"/>
      <point x="363" y="61"/>
      <point x="394" y="50" type="curve" smooth="yes"/>
      <point x="421" y="40"/>
      <point x="445" y="31"/>
      <point x="469" y="31" type="curve" smooth="yes"/>
      <point x="499" y="31"/>
      <point x="510" y="65"/>
      <point x="510" y="81" type="curve" smooth="yes"/>
      <point x="510" y="97"/>
      <point x="499" y="132"/>
      <point x="469" y="132" type="curve" smooth="yes"/>
      <point x="445" y="132"/>
      <point x="421" y="123"/>
      <point x="394" y="113" type="curve" smooth="yes"/>
      <point x="363" y="102"/>
      <point x="329" y="89"/>
      <point x="289" y="89" type="curve" smooth="yes"/>
      <point x="287" y="89" type="line"/>
      <point x="288" y="184"/>
      <point x="324" y="239"/>
      <point x="336" y="253" type="curve"/>
      <point x="324" y="267"/>
      <point x="288" y="322"/>
      <point x="287" y="417" type="curve"/>
      <point x="289" y="417" type="line" smooth="yes"/>
      <point x="329" y="417"/>
      <point x="363" y="404"/>
      <point x="394" y="393" type="curve" smooth="yes"/>
      <point x="421" y="383"/>
      <point x="445" y="374"/>
      <point x="469" y="374" type="curve" smooth="yes"/>
      <point x="499" y="374"/>
      <point x="510" y="409"/>
      <point x="510" y="425" type="curve" smooth="yes"/>
      <point x="510" y="441"/>
      <point x="499" y="475"/>
      <point x="469" y="475" type="curve" smooth="yes"/>
      <point x="445" y="475"/>
      <point x="421" y="466"/>
      <point x="394" y="456" type="curve" smooth="yes"/>
      <point x="363" y="445"/>
      <point x="329" y="432"/>
      <point x="289" y="432" type="curve" smooth="yes"/>
      <point x="286" y="432" type="line"/>
      <point x="286" y="451" type="line" smooth="yes"/>
      <point x="286" y="497"/>
      <point x="297" y="535"/>
      <point x="308" y="570" type="curve" smooth="yes"/>
      <point x="318" y="601"/>
      <point x="327" y="628"/>
      <point x="327" y="655" type="curve" smooth="yes"/>
      <point x="327" y="690"/>
      <point x="292" y="702"/>
      <point x="276" y="702" type="curve" smooth="yes"/>
      <point x="260" y="702"/>
      <point x="226" y="690"/>
      <point x="226" y="655" type="curve" smooth="yes"/>
      <point x="226" y="628"/>
      <point x="235" y="601"/>
      <point x="245" y="570" type="curve" smooth="yes"/>
      <point x="256" y="535"/>
      <point x="267" y="497"/>
      <point x="267" y="451" type="curve" smooth="yes"/>
      <point x="267" y="432" type="line"/>
      <point x="266" y="432" type="line" smooth="yes"/>
      <point x="226" y="432"/>
      <point x="192" y="445"/>
      <point x="161" y="456" type="curve" smooth="yes"/>
      <point x="134" y="466"/>
      <point x="110" y="475"/>
      <point x="86" y="475" type="curve" smooth="yes"/>
      <point x="56" y="475"/>
      <point x="45" y="441"/>
      <point x="45" y="425" type="curve" smooth="yes"/>
      <point x="45" y="409"/>
      <point x="56" y="374"/>
      <point x="86" y="374" type="curve" smooth="yes"/>
      <point x="110" y="374"/>
      <point x="134" y="383"/>
      <point x="161" y="393" type="curve" smooth="yes"/>
      <point x="192" y="404"/>
      <point x="223" y="417"/>
      <point x="263" y="417" type="curve" smooth="yes"/>
      <point x="265" y="417" type="line"/>
      <point x="264" y="322"/>
      <point x="228" y="267"/>
      <point x="216" y="253" type="curve"/>
      <point x="228" y="239"/>
      <point x="264" y="184"/>
      <point x="265" y="89" type="curve"/>
      <point x="263" y="89" type="line" smooth="yes"/>
      <point x="224" y="89"/>
      <point x="192" y="102"/>
      <point x="161" y="113" type="curve" smooth="yes"/>
      <point x="134" y="123"/>
      <point x="110" y="132"/>
      <point x="86" y="132" type="curve" smooth="yes"/>
      <point x="56" y="132"/>
      <point x="45" y="97"/>
      <point x="45" y="81" type="curve" smooth="yes"/>
      <point x="45" y="65"/>
      <point x="56" y="31"/>
      <point x="86" y="31" type="curve" smooth="yes"/>
      <point x="110" y="31"/>
      <point x="134" y="40"/>
      <point x="161" y="50" type="curve" smooth="yes"/>
      <point x="192" y="61"/>
      <point x="226" y="74"/>
      <point x="266" y="74" type="curve" smooth="yes"/>
      <point x="267" y="74" type="line"/>
      <point x="267" y="55" type="line" smooth="yes"/>
      <point x="267" y="9"/>
      <point x="256" y="-29"/>
      <point x="245" y="-64" type="curve" smooth="yes"/>
      <point x="235" y="-95"/>
      <point x="226" y="-122"/>
      <point x="226" y="-149" type="curve" smooth="yes"/>
      <point x="226" y="-184"/>
      <point x="260" y="-196"/>
    </contour>
  </outline>
</glyph>
<glyph name="Euro" format="1">
  <advance width="633"/>
  <unicode hex="20AC"/>
  <outline>
    <contour>
      <point x="359" y="-13" type="curve" smooth="yes"/>
      <point x="389" y="-13"/>
      <point x="430" y="-2"/>
      <point x="466" y="8" type="curve" smooth="yes"/>
      <point x="499" y="16"/>
      <point x="528" y="25"/>
      <point x="543" y="25" type="curve"/>
      <point x="556" y="25" type="line"/>
      <point x="556" y="78"/>
      <point x="568" y="144"/>
      <point x="578" y="208" type="curve"/>
      <point x="560" y="208" type="line"/>
      <point x="531" y="82"/>
      <point x="441" y="14"/>
      <point x="371" y="14" type="curve" smooth="yes"/>
      <point x="256" y="14"/>
      <point x="182" y="144"/>
      <point x="182" y="340" type="curve" smooth="yes"/>
      <point x="182" y="532"/>
      <point x="266" y="656"/>
      <point x="370" y="656" type="curve" smooth="yes"/>
      <point x="475" y="656"/>
      <point x="522" y="578"/>
      <point x="556" y="468" type="curve"/>
      <point x="574" y="468" type="line"/>
      <point x="574" y="468"/>
      <point x="560" y="532"/>
      <point x="560" y="594" type="curve" smooth="yes"/>
      <point x="560" y="610"/>
      <point x="562" y="626"/>
      <point x="563" y="640" type="curve"/>
      <point x="562" y="642" type="line"/>
      <point x="552" y="640"/>
      <point x="544" y="637"/>
      <point x="533" y="637" type="curve" smooth="yes"/>
      <point x="488" y="637"/>
      <point x="457" y="681"/>
      <point x="356" y="681" type="curve" smooth="yes"/>
      <point x="215" y="681"/>
      <point x="85" y="543"/>
      <point x="85" y="337" type="curve" smooth="yes"/>
      <point x="85" y="140"/>
      <point x="197" y="-13"/>
    </contour>
    <contour>
      <point x="10" y="251" type="line"/>
      <point x="440" y="251" type="line"/>
      <point x="440" y="281" type="line"/>
      <point x="10" y="281" type="line"/>
    </contour>
    <contour>
      <point x="10" y="384" type="line"/>
      <point x="440" y="384" type="line"/>
      <point x="440" y="414" type="line"/>
      <point x="10" y="414" type="line"/>
    </contour>
  </outline>
</glyph>
<glyph name="partialdiff" format="1">
  <advance width="519"/>
  <unicode hex="2202"/>
  <outline>
    <contour>
      <point x="204" y="-11" type="curve" smooth="yes"/>
      <point x="369" y="-11"/>
      <point x="459" y="165"/>
      <point x="459" y="411" type="curve" smooth="yes"/>
      <point x="459" y="580"/>
      <point x="409" y="682"/>
      <point x="288" y="682" type="curve" smooth="yes"/>
      <point x="218" y="682"/>
      <point x="172" y="647"/>
      <point x="172" y="604" type="curve" smooth="yes"/>
      <point x="172" y="579"/>
      <point x="190" y="566"/>
      <point x="214" y="566" type="curve" smooth="yes"/>
      <point x="235" y="566"/>
      <point x="247" y="588"/>
      <point x="255" y="609" type="curve" smooth="yes"/>
      <point x="264" y="632"/>
      <point x="276" y="654"/>
      <point x="296" y="654" type="curve" smooth="yes"/>
      <point x="363" y="654"/>
      <point x="390" y="562"/>
      <point x="390" y="404" type="curve" smooth="yes"/>
      <point x="390" y="362"/>
      <point x="386" y="309"/>
      <point x="379" y="270" type="curve"/>
      <point x="377" y="270" type="line"/>
      <point x="377" y="350"/>
      <point x="323" y="406"/>
      <point x="235" y="406" type="curve" smooth="yes"/>
      <point x="142" y="406"/>
      <point x="45" y="335"/>
      <point x="45" y="159" type="curve" smooth="yes"/>
      <point x="45" y="44"/>
      <point x="119" y="-11"/>
    </contour>
    <contour>
      <point x="223" y="11" type="curve" smooth="yes"/>
      <point x="167" y="11"/>
      <point x="129" y="55"/>
      <point x="129" y="162" type="curve" smooth="yes"/>
      <point x="129" y="318"/>
      <point x="174" y="379"/>
      <point x="252" y="379" type="curve" smooth="yes"/>
      <point x="332" y="379"/>
      <point x="357" y="298"/>
      <point x="357" y="233" type="curve" smooth="yes"/>
      <point x="357" y="153"/>
      <point x="319" y="11"/>
    </contour>
  </outline>
</glyph>
<glyph name="product" format="1">
  <advance width="820"/>
  <unicode hex="220F"/>
  <outline>
    <contour>
      <point x="440" y="-107" type="line"/>
      <point x="780" y="-107" type="line"/>
      <point x="780" y="-89" type="line"/>
      <point x="719" y="-78" type="line" smooth="yes"/>
      <point x="664" y="-68"/>
      <point x="655" y="-61"/>
      <point x="655" y="-19" type="curve" smooth="yes"/>
      <point x="655" y="623" type="line" smooth="yes"/>
      <point x="655" y="665"/>
      <point x="664" y="672"/>
      <point x="719" y="682" type="curve" smooth="yes"/>
      <point x="780" y="693" type="line"/>
      <point x="780" y="711" type="line"/>
      <point x="440" y="711" type="line"/>
      <point x="440" y="693" type="line"/>
      <point x="565" y="693" type="line"/>
      <point x="565" y="-19" type="line" smooth="yes"/>
      <point x="565" y="-61"/>
      <point x="556" y="-68"/>
      <point x="501" y="-78" type="curve" smooth="yes"/>
      <point x="440" y="-89" type="line"/>
    </contour>
    <contour>
      <point x="40" y="-107" type="line"/>
      <point x="380" y="-107" type="line"/>
      <point x="380" y="-89" type="line"/>
      <point x="319" y="-78" type="line" smooth="yes"/>
      <point x="264" y="-68"/>
      <point x="255" y="-61"/>
      <point x="255" y="-19" type="curve" smooth="yes"/>
      <point x="255" y="690" type="line"/>
      <point x="380" y="693" type="line"/>
      <point x="380" y="711" type="line"/>
      <point x="40" y="711" type="line"/>
      <point x="40" y="693" type="line"/>
      <point x="101" y="682" type="line" smooth="yes"/>
      <point x="156" y="672"/>
      <point x="165" y="665"/>
      <point x="165" y="623" type="curve" smooth="yes"/>
      <point x="165" y="-19" type="line" smooth="yes"/>
      <point x="165" y="-61"/>
      <point x="156" y="-68"/>
      <point x="101" y="-78" type="curve" smooth="yes"/>
      <point x="40" y="-89" type="line"/>
    </contour>
    <contour>
      <point x="237" y="683" type="line"/>
      <point x="589" y="683" type="line"/>
      <point x="589" y="711" type="line"/>
      <point x="237" y="711" type="line"/>
    </contour>
  </outline>
</glyph>
<glyph name="summation" format="1">
  <advance width="556"/>
  <unicode hex="2211"/>
  <outline>
    <contour>
      <point x="10" y="-107" type="line"/>
      <point x="488" y="-107" type="line"/>
      <point x="516" y="68" type="line"/>
      <point x="498" y="68" type="line"/>
      <point x="487" y="34" type="line" smooth="yes"/>
      <point x="471" y="-14"/>
      <point x="464" y="-22"/>
      <point x="427" y="-22" type="curve" smooth="yes"/>
      <point x="92" y="-22" type="line"/>
      <point x="308" y="344" type="line"/>
      <point x="113" y="683" type="line"/>
      <point x="411" y="683" type="line" smooth="yes"/>
      <point x="448" y="683"/>
      <point x="455" y="675"/>
      <point x="471" y="627" type="curve" smooth="yes"/>
      <point x="482" y="593" type="line"/>
      <point x="500" y="593" type="line"/>
      <point x="478" y="711" type="line"/>
      <point x="10" y="711" type="line"/>
      <point x="10" y="690" type="line"/>
      <point x="236" y="298" type="line"/>
      <point x="10" y="-84" type="line"/>
    </contour>
  </outline>
</glyph>
<glyph name="infinity" format="1">
  <advance width="727"/>
  <unicode hex="221E"/>
  <outline>
    <contour>
      <point x="208" y="160" type="curve" smooth="yes"/>
      <point x="303" y="160"/>
      <point x="346" y="241"/>
      <point x="391" y="309" type="curve" smooth="yes"/>
      <point x="432" y="372"/>
      <point x="474" y="440"/>
      <point x="548" y="440" type="curve" smooth="yes"/>
      <point x="608" y="440"/>
      <point x="658" y="403"/>
      <point x="658" y="340" type="curve" smooth="yes"/>
      <point x="658" y="272"/>
      <point x="616" y="225"/>
      <point x="527" y="225" type="curve" smooth="yes"/>
      <point x="470" y="225"/>
      <point x="414" y="256"/>
      <point x="382" y="318" type="curve"/>
      <point x="364" y="295" type="line"/>
      <point x="388" y="227"/>
      <point x="455" y="160"/>
      <point x="539" y="160" type="curve" smooth="yes"/>
      <point x="630" y="160"/>
      <point x="687" y="237"/>
      <point x="687" y="330" type="curve" smooth="yes"/>
      <point x="687" y="431"/>
      <point x="618" y="507"/>
      <point x="519" y="507" type="curve" smooth="yes"/>
      <point x="424" y="507"/>
      <point x="380" y="427"/>
      <point x="337" y="361" type="curve" smooth="yes"/>
      <point x="295" y="298"/>
      <point x="253" y="227"/>
      <point x="179" y="227" type="curve" smooth="yes"/>
      <point x="119" y="227"/>
      <point x="69" y="264"/>
      <point x="69" y="327" type="curve" smooth="yes"/>
      <point x="69" y="395"/>
      <point x="111" y="442"/>
      <point x="200" y="442" type="curve" smooth="yes"/>
      <point x="257" y="442"/>
      <point x="313" y="411"/>
      <point x="345" y="349" type="curve"/>
      <point x="363" y="372" type="line"/>
      <point x="339" y="440"/>
      <point x="272" y="507"/>
      <point x="188" y="507" type="curve" smooth="yes"/>
      <point x="97" y="507"/>
      <point x="40" y="430"/>
      <point x="40" y="337" type="curve" smooth="yes"/>
      <point x="40" y="237"/>
      <point x="109" y="160"/>
    </contour>
  </outline>
</glyph>
<glyph name="integral" format="1">
  <advance width="324"/>
  <unicode hex="222B"/>
  <outline>
    <contour>
      <point x="106" y="-197" type="curve" smooth="yes"/>
      <point x="202" y="-197"/>
      <point x="228" y="-88"/>
      <point x="228" y="44" type="curve" smooth="yes"/>
      <point x="228" y="132"/>
      <point x="205" y="245"/>
      <point x="191" y="360" type="curve" smooth="yes"/>
      <point x="186" y="396"/>
      <point x="169" y="491"/>
      <point x="169" y="571" type="curve" smooth="yes"/>
      <point x="169" y="632"/>
      <point x="179" y="682"/>
      <point x="214" y="682" type="curve" smooth="yes"/>
      <point x="228" y="682"/>
      <point x="239" y="673"/>
      <point x="249" y="653" type="curve" smooth="yes"/>
      <point x="259" y="633"/>
      <point x="270" y="616"/>
      <point x="289" y="616" type="curve" smooth="yes"/>
      <point x="309" y="616"/>
      <point x="321" y="627"/>
      <point x="321" y="649" type="curve" smooth="yes"/>
      <point x="321" y="677"/>
      <point x="278" y="710"/>
      <point x="220" y="710" type="curve" smooth="yes"/>
      <point x="124" y="710"/>
      <point x="97" y="602"/>
      <point x="97" y="471" type="curve" smooth="yes"/>
      <point x="97" y="383"/>
      <point x="117" y="272"/>
      <point x="133" y="157" type="curve" smooth="yes"/>
      <point x="138" y="121"/>
      <point x="156" y="23"/>
      <point x="157" y="-56" type="curve" smooth="yes"/>
      <point x="157" y="-118"/>
      <point x="156" y="-162"/>
      <point x="123" y="-162" type="curve" smooth="yes"/>
      <point x="107" y="-162"/>
      <point x="100" y="-153"/>
      <point x="90" y="-139" type="curve" smooth="yes"/>
      <point x="78" y="-123"/>
      <point x="72" y="-102"/>
      <point x="53" y="-102" type="curve" smooth="yes"/>
      <point x="32" y="-102"/>
      <point x="17" y="-113"/>
      <point x="17" y="-135" type="curve" smooth="yes"/>
      <point x="17" y="-168"/>
      <point x="59" y="-197"/>
    </contour>
  </outline>
</glyph>
<glyph name="notequal" format="1">
  <advance width="600"/>
  <unicode hex="2260"/>
  <outline>
    <contour>
      <point x="70" y="88" type="line"/>
      <point x="113" y="88" type="line"/>
      <point x="457" y="580" type="line"/>
      <point x="414" y="580" type="line"/>
    </contour>
    <component base="equal"/>
  </outline>
</glyph>
<glyph name="greaterequal" format="1">
  <advance width="530"/>
  <unicode hex="2265"/>
  <outline>
    <contour>
      <point x="432" y="379" type="line"/>
      <point x="75" y="259" type="line"/>
      <point x="75" y="217" type="line"/>
      <point x="450" y="353" type="line"/>
      <point x="451" y="395" type="line"/>
      <point x="76" y="531" type="line"/>
      <point x="76" y="489" type="line"/>
      <point x="432" y="370" type="line"/>
    </contour>
    <component base="minus" yOffset="-154"/>
  </outline>
</glyph>
<glyph name="f_f_i" format="1">
  <advance width="791"/>
  <unicode hex="FB03"/>
  <outline>
    <contour>
      <point x="35" y="0" type="line"/>
      <point x="244" y="0" type="line"/>
      <point x="244" y="15" type="line"/>
      <point x="196" y="26" type="line" smooth="yes"/>
      <point x="176" y="31"/>
      <point x="170" y="39"/>
      <point x="170" y="58" type="curve" smooth="yes"/>
      <point x="170" y="396" type="line"/>
      <point x="395" y="396" type="line"/>
      <point x="395" y="426" type="line"/>
      <point x="170" y="426" type="line"/>
      <point x="170" y="440" type="line" smooth="yes"/>
      <point x="170" y="551"/>
      <point x="207" y="670"/>
      <point x="317" y="670" type="curve" smooth="yes"/>
      <point x="360" y="670"/>
      <point x="405" y="640"/>
      <point x="414" y="602" type="curve"/>
      <point x="459" y="648" type="line"/>
      <point x="431" y="672"/>
      <point x="376" y="691"/>
      <point x="333" y="691" type="curve" smooth="yes"/>
      <point x="166" y="691"/>
      <point x="103" y="562"/>
      <point x="103" y="446" type="curve" smooth="yes"/>
      <point x="103" y="426" type="line"/>
      <point x="36" y="426" type="line"/>
      <point x="36" y="396" type="line"/>
      <point x="103" y="396" type="line"/>
      <point x="103" y="58" type="line" smooth="yes"/>
      <point x="103" y="39"/>
      <point x="97" y="31"/>
      <point x="77" y="26" type="curve" smooth="yes"/>
      <point x="35" y="15" type="line"/>
    </contour>
    <component base="fi" xOffset="265"/>
  </outline>
</glyph>
<glyph name="f_f_l" format="1">
  <advance width="802"/>
  <unicode hex="FB04"/>
  <outline>
    <contour>
      <point x="35" y="0" type="line"/>
      <point x="244" y="0" type="line"/>
      <point x="244" y="15" type="line"/>
      <point x="196" y="26" type="line" smooth="yes"/>
      <point x="176" y="31"/>
      <point x="170" y="39"/>
      <point x="170" y="58" type="curve" smooth="yes"/>
      <point x="170" y="396" type="line"/>
      <point x="395" y="396" type="line"/>
      <point x="395" y="426" type="line"/>
      <point x="170" y="426" type="line"/>
      <point x="170" y="440" type="line" smooth="yes"/>
      <point x="170" y="551"/>
      <point x="207" y="670"/>
      <point x="317" y="670" type="curve" smooth="yes"/>
      <point x="360" y="670"/>
      <point x="405" y="640"/>
      <point x="414" y="602" type="curve"/>
      <point x="456" y="651" type="line"/>
      <point x="428" y="675"/>
      <point x="376" y="691"/>
      <point x="333" y="691" type="curve" smooth="yes"/>
      <point x="166" y="691"/>
      <point x="103" y="562"/>
      <point x="103" y="446" type="curve" smooth="yes"/>
      <point x="103" y="426" type="line"/>
      <point x="36" y="426" type="line"/>
      <point x="36" y="396" type="line"/>
      <point x="103" y="396" type="line"/>
      <point x="103" y="58" type="line" smooth="yes"/>
      <point x="103" y="39"/>
      <point x="97" y="31"/>
      <point x="77" y="26" type="curve" smooth="yes"/>
      <point x="35" y="15" type="line"/>
    </contour>
    <component base="fl" xOffset="268"/>
  </outline>
</glyph>
<glyph name="acutecomb.case" format="1">
  <advance width="530"/>
  <outline>
    <component base="acute" xScale="0.94" xyScale="-0.342" yScale="0.94" yxScale="0.342" xOffset="-199" yOffset="290"/>
    <contour>
      <point x="253" y="690" type="move" name="_topcase"/>
    </contour>
  </outline>
</glyph>
<glyph name="c.sc" format="1">
  <advance width="653"/>
  <outline>
    <contour>
      <point x="354" y="-10" type="curve" smooth="yes"/>
      <point x="386" y="-10"/>
      <point x="428" y="-2"/>
      <point x="467" y="6" type="curve" smooth="yes"/>
      <point x="504" y="14"/>
      <point x="536" y="19"/>
      <point x="559" y="19" type="curve" smooth="yes"/>
      <point x="568" y="19" type="line"/>
      <point x="568" y="62"/>
      <point x="578" y="112"/>
      <point x="589" y="163" type="curve"/>
      <point x="573" y="163" type="line"/>
      <point x="521" y="26"/>
      <point x="403" y="9"/>
      <point x="355" y="9" type="curve" smooth="yes"/>
      <point x="230" y="9"/>
      <point x="138" y="121"/>
      <point x="138" y="271" type="curve" smooth="yes"/>
      <point x="138" y="420"/>
      <point x="238" y="525"/>
      <point x="354" y="525" type="curve" smooth="yes"/>
      <point x="465" y="525"/>
      <point x="542" y="442"/>
      <point x="570" y="374" type="curve"/>
      <point x="587" y="374" type="line"/>
      <point x="568" y="445"/>
      <point x="572" y="486"/>
      <point x="576" y="512" type="curve"/>
      <point x="574" y="514" type="line"/>
      <point x="563" y="512"/>
      <point x="555" y="510"/>
      <point x="543" y="510" type="curve" smooth="yes"/>
      <point x="522" y="510"/>
      <point x="503" y="516"/>
      <point x="480" y="524" type="curve" smooth="yes"/>
      <point x="450" y="534"/>
      <point x="412" y="545"/>
      <point x="351" y="545" type="curve" smooth="yes"/>
      <point x="197" y="545"/>
      <point x="56" y="434"/>
      <point x="56" y="270" type="curve" smooth="yes"/>
      <point x="56" y="112"/>
      <point x="177" y="-10"/>
    </contour>
    <contour>
      <point x="363" y="-40" type="move" name="bottom"/>
    </contour>
    <contour>
      <point x="364" y="552" type="move" name="top"/>
    </contour>
  </outline>
</glyph>
<glyph name="caroncomb.case" format="1">
  <advance width="530"/>
  <outline>
    <contour>
      <point x="260" y="724" type="line"/>
      <point x="270" y="724" type="line"/>
      <point x="401" y="846" type="line"/>
      <point x="392" y="860" type="line"/>
      <point x="264" y="800" type="line"/>
      <point x="138" y="860" type="line"/>
      <point x="129" y="846" type="line"/>
    </contour>
    <contour>
      <point x="265" y="690" type="move" name="_topcase"/>
    </contour>
  </outline>
</glyph>
<glyph name="circumflexcomb.case" format="1">
  <advance width="530"/>
  <outline>
    <component base="caroncomb.case" yScale="-1" yOffset="1584"/>
    <contour>
      <point x="265" y="690" type="move" name="_topcase"/>
    </contour>
  </outline>
</glyph>
<glyph name="dieresiscomb.case" format="1">
  <advance width="530"/>
  <outline>
    <component base="dieresiscomb" yOffset="176"/>
    <contour>
      <point x="265" y="690" type="move" name="_topcase"/>
    </contour>
  </outline>
</glyph>
<glyph name="e.sc" format="1">
  <advance width="612"/>
  <outline>
    <contour>
      <point x="52" y="0" type="line"/>
      <point x="538" y="0" type="line"/>
      <point x="539" y="42"/>
      <point x="546" y="94"/>
      <point x="560" y="144" type="curve"/>
      <point x="544" y="144" type="line"/>
      <point x="522" y="103" type="line" smooth="yes"/>
      <point x="502" y="65"/>
      <point x="445" y="20"/>
      <point x="376" y="20" type="curve" smooth="yes"/>
      <point x="299" y="20" type="line" smooth="yes"/>
      <point x="245" y="20"/>
      <point x="233" y="33"/>
      <point x="233" y="72" type="curve" smooth="yes"/>
      <point x="233" y="273" type="line"/>
      <point x="367" y="273" type="line" smooth="yes"/>
      <point x="425" y="273"/>
      <point x="437" y="255"/>
      <point x="446" y="210" type="curve" smooth="yes"/>
      <point x="454" y="173" type="line"/>
      <point x="469" y="173" type="line"/>
      <point x="469" y="395" type="line"/>
      <point x="454" y="395" type="line"/>
      <point x="446" y="358" type="line" smooth="yes"/>
      <point x="437" y="313"/>
      <point x="425" y="295"/>
      <point x="367" y="295" type="curve" smooth="yes"/>
      <point x="233" y="295" type="line"/>
      <point x="233" y="519" type="line"/>
      <point x="380" y="519" type="line" smooth="yes"/>
      <point x="465" y="519"/>
      <point x="496" y="466"/>
      <point x="522" y="397" type="curve"/>
      <point x="538" y="397" type="line"/>
      <point x="535" y="419"/>
      <point x="525" y="454"/>
      <point x="525" y="494" type="curve" smooth="yes"/>
      <point x="525" y="508"/>
      <point x="527" y="523"/>
      <point x="530" y="538" type="curve"/>
      <point x="52" y="538" type="line"/>
      <point x="52" y="524" type="line"/>
      <point x="103" y="515" type="line" smooth="yes"/>
      <point x="150" y="507"/>
      <point x="157" y="502"/>
      <point x="157" y="468" type="curve" smooth="yes"/>
      <point x="157" y="70" type="line" smooth="yes"/>
      <point x="157" y="37"/>
      <point x="150" y="31"/>
      <point x="103" y="23" type="curve" smooth="yes"/>
      <point x="52" y="14" type="line"/>
    </contour>
    <contour>
      <point x="328" y="552" type="move" name="top"/>
    </contour>
  </outline>
</glyph>
<glyph name="eng.sc" format="1">
  <advance width="755"/>
  <outline>
    <contour>
      <point x="508" y="-182" type="curve" smooth="yes"/>
      <point x="549" y="-182"/>
      <point x="573" y="-160"/>
      <point x="587" y="-138" type="curve" smooth="yes"/>
      <point x="597" y="-123"/>
      <point x="601" y="-114"/>
      <point x="611" y="-114" type="curve"/>
      <point x="611" y="465" type="line" smooth="yes"/>
      <point x="611" y="498"/>
      <point x="619" y="507"/>
      <point x="665" y="515" type="curve" smooth="yes"/>
      <point x="716" y="524" type="line"/>
      <point x="716" y="538" type="line"/>
      <point x="482" y="538" type="line"/>
      <point x="482" y="524" type="line"/>
      <point x="533" y="515" type="line" smooth="yes"/>
      <point x="580" y="507"/>
      <point x="587" y="496"/>
      <point x="587" y="462" type="curve"/>
      <point x="588" y="115" type="line"/>
      <point x="194" y="538" type="line"/>
      <point x="52" y="538" type="line"/>
      <point x="52" y="525" type="line"/>
      <point x="91" y="518" type="line" smooth="yes"/>
      <point x="154" y="507"/>
      <point x="158" y="499"/>
      <point x="158" y="462" type="curve" smooth="yes"/>
      <point x="158" y="74" type="line" smooth="yes"/>
      <point x="158" y="40"/>
      <point x="151" y="31"/>
      <point x="104" y="23" type="curve" smooth="yes"/>
      <point x="52" y="14" type="line"/>
      <point x="53" y="0" type="line"/>
      <point x="287" y="0" type="line"/>
      <point x="287" y="14" type="line"/>
      <point x="236" y="23" type="line" smooth="yes"/>
      <point x="190" y="31"/>
      <point x="182" y="42"/>
      <point x="182" y="76" type="curve" smooth="yes"/>
      <point x="182" y="446" type="line"/>
      <point x="586" y="0" type="line"/>
      <point x="586" y="-55" type="line" smooth="yes"/>
      <point x="586" y="-122"/>
      <point x="564" y="-163"/>
      <point x="509" y="-163" type="curve" smooth="yes"/>
      <point x="484" y="-163"/>
      <point x="467" y="-152"/>
      <point x="467" y="-143" type="curve" smooth="yes"/>
      <point x="467" y="-142"/>
      <point x="468" y="-142"/>
      <point x="472" y="-142" type="curve" smooth="yes"/>
      <point x="495" y="-142"/>
      <point x="511" y="-121"/>
      <point x="511" y="-100" type="curve" smooth="yes"/>
      <point x="511" y="-78"/>
      <point x="496" y="-55"/>
      <point x="465" y="-55" type="curve" smooth="yes"/>
      <point x="442" y="-55"/>
      <point x="418" y="-70"/>
      <point x="418" y="-102" type="curve" smooth="yes"/>
      <point x="418" y="-138"/>
      <point x="456" y="-182"/>
    </contour>
  </outline>
</glyph>
<glyph name="eth.sc" format="1">
  <advance width="713"/>
  <outline>
    <contour>
      <point x="52" y="257" type="line"/>
      <point x="340" y="257" type="line"/>
      <point x="340" y="285" type="line"/>
      <point x="52" y="285" type="line"/>
    </contour>
    <component base="d.sc"/>
  </outline>
</glyph>
<glyph name="f.sc" format="1">
  <advance width="577"/>
  <outline>
    <contour>
      <point x="52" y="0" type="line"/>
      <point x="342" y="0" type="line"/>
      <point x="341" y="14" type="line"/>
      <point x="286" y="23" type="line" smooth="yes"/>
      <point x="240" y="30"/>
      <point x="233" y="37"/>
      <point x="233" y="70" type="curve" smooth="yes"/>
      <point x="233" y="257" type="line"/>
      <point x="345" y="257" type="line" smooth="yes"/>
      <point x="394" y="257"/>
      <point x="434" y="257"/>
      <point x="446" y="193" type="curve" smooth="yes"/>
      <point x="453" y="158" type="line"/>
      <point x="469" y="158" type="line"/>
      <point x="469" y="379" type="line"/>
      <point x="453" y="379" type="line"/>
      <point x="446" y="342" type="line" smooth="yes"/>
      <point x="435" y="280"/>
      <point x="397" y="279"/>
      <point x="346" y="279" type="curve" smooth="yes"/>
      <point x="233" y="279" type="line"/>
      <point x="233" y="519" type="line"/>
      <point x="391" y="519" type="line" smooth="yes"/>
      <point x="467" y="519"/>
      <point x="508" y="443"/>
      <point x="522" y="397" type="curve"/>
      <point x="538" y="397" type="line"/>
      <point x="535" y="419"/>
      <point x="525" y="454"/>
      <point x="525" y="494" type="curve" smooth="yes"/>
      <point x="525" y="508"/>
      <point x="527" y="523"/>
      <point x="530" y="538" type="curve"/>
      <point x="52" y="538" type="line"/>
      <point x="52" y="524" type="line"/>
      <point x="103" y="515" type="line" smooth="yes"/>
      <point x="150" y="507"/>
      <point x="157" y="502"/>
      <point x="157" y="468" type="curve" smooth="yes"/>
      <point x="157" y="70" type="line" smooth="yes"/>
      <point x="157" y="37"/>
      <point x="150" y="31"/>
      <point x="103" y="23" type="curve" smooth="yes"/>
      <point x="52" y="14" type="line"/>
    </contour>
  </outline>
</glyph>
<glyph name="hungarumlautcomb.case" format="1">
  <advance width="530"/>
  <outline>
    <component base="acute" xScale="0.97" xyScale="-0.242" yScale="0.97" yxScale="0.242" xOffset="-37" yOffset="240"/>
    <component base="acute" xScale="0.97" xyScale="-0.242" yScale="0.97" yxScale="0.242" xOffset="-251" yOffset="240"/>
    <contour>
      <point x="215" y="690" type="move" name="_topcase"/>
    </contour>
  </outline>
</glyph>
<glyph name="i.sc" format="1">
  <advance width="390"/>
  <outline>
    <contour>
      <point x="52" y="0" type="line"/>
      <point x="338" y="0" type="line"/>
      <point x="337" y="14" type="line"/>
      <point x="286" y="23" type="line" smooth="yes"/>
      <point x="240" y="31"/>
      <point x="233" y="37"/>
      <point x="233" y="70" type="curve" smooth="yes"/>
      <point x="233" y="468" type="line" smooth="yes"/>
      <point x="233" y="502"/>
      <point x="240" y="507"/>
      <point x="286" y="515" type="curve" smooth="yes"/>
      <point x="337" y="524" type="line"/>
      <point x="338" y="538" type="line"/>
      <point x="52" y="538" type="line"/>
      <point x="52" y="524" type="line"/>
      <point x="103" y="515" type="line" smooth="yes"/>
      <point x="150" y="507"/>
      <point x="157" y="502"/>
      <point x="157" y="468" type="curve" smooth="yes"/>
      <point x="157" y="70" type="line" smooth="yes"/>
      <point x="157" y="37"/>
      <point x="150" y="31"/>
      <point x="103" y="23" type="curve" smooth="yes"/>
      <point x="52" y="14" type="line"/>
    </contour>
    <contour>
      <point x="195" y="552" type="move" name="top"/>
    </contour>
  </outline>
</glyph>
<glyph name="k.sc" format="1">
  <advance width="708"/>
  <outline>
    <contour>
      <point x="52" y="0" type="line"/>
      <point x="338" y="0" type="line"/>
      <point x="337" y="14" type="line"/>
      <point x="286" y="23" type="line" smooth="yes"/>
      <point x="240" y="31"/>
      <point x="233" y="37"/>
      <point x="233" y="70" type="curve" smooth="yes"/>
      <point x="233" y="218" type="line"/>
      <point x="289" y="267" type="line"/>
      <point x="507" y="41" type="line" smooth="yes"/>
      <point x="537" y="11"/>
      <point x="564" y="0"/>
      <point x="611" y="0" type="curve" smooth="yes"/>
      <point x="677" y="0" type="line"/>
      <point x="677" y="14" type="line"/>
      <point x="649" y="19"/>
      <point x="634" y="24"/>
      <point x="615" y="44" type="curve" smooth="yes"/>
      <point x="353" y="323" type="line"/>
      <point x="509" y="451" type="line" smooth="yes"/>
      <point x="560" y="493"/>
      <point x="582" y="507"/>
      <point x="624" y="516" type="curve" smooth="yes"/>
      <point x="663" y="524" type="line"/>
      <point x="664" y="538" type="line"/>
      <point x="444" y="538" type="line"/>
      <point x="444" y="524" type="line"/>
      <point x="478" y="518" type="line" smooth="yes"/>
      <point x="524" y="510"/>
      <point x="528" y="499"/>
      <point x="494" y="470" type="curve" smooth="yes"/>
      <point x="232" y="249" type="line"/>
      <point x="232" y="468" type="line" smooth="yes"/>
      <point x="232" y="502"/>
      <point x="240" y="507"/>
      <point x="286" y="515" type="curve" smooth="yes"/>
      <point x="337" y="524" type="line"/>
      <point x="338" y="538" type="line"/>
      <point x="52" y="538" type="line"/>
      <point x="52" y="524" type="line"/>
      <point x="103" y="515" type="line" smooth="yes"/>
      <point x="150" y="507"/>
      <point x="157" y="502"/>
      <point x="157" y="468" type="curve" smooth="yes"/>
      <point x="157" y="70" type="line" smooth="yes"/>
      <point x="157" y="37"/>
      <point x="150" y="31"/>
      <point x="103" y="23" type="curve" smooth="yes"/>
      <point x="52" y="14" type="line"/>
    </contour>
  </outline>
</glyph>
<glyph name="l.sc" format="1">
  <advance width="627"/>
  <outline>
    <contour>
      <point x="52" y="0" type="line"/>
      <point x="580" y="0" type="line"/>
      <point x="580" y="42"/>
      <point x="587" y="94"/>
      <point x="601" y="144" type="curve"/>
      <point x="585" y="144" type="line"/>
      <point x="563" y="103" type="line" smooth="yes"/>
      <point x="543" y="65"/>
      <point x="486" y="20"/>
      <point x="417" y="20" type="curve" smooth="yes"/>
      <point x="299" y="20" type="line" smooth="yes"/>
      <point x="245" y="20"/>
      <point x="233" y="33"/>
      <point x="233" y="72" type="curve" smooth="yes"/>
      <point x="233" y="468" type="line" smooth="yes"/>
      <point x="233" y="502"/>
      <point x="240" y="507"/>
      <point x="286" y="515" type="curve" smooth="yes"/>
      <point x="337" y="524" type="line"/>
      <point x="338" y="538" type="line"/>
      <point x="52" y="538" type="line"/>
      <point x="52" y="524" type="line"/>
      <point x="103" y="515" type="line" smooth="yes"/>
      <point x="150" y="507"/>
      <point x="157" y="502"/>
      <point x="157" y="468" type="curve" smooth="yes"/>
      <point x="157" y="70" type="line" smooth="yes"/>
      <point x="157" y="37"/>
      <point x="150" y="31"/>
      <point x="103" y="23" type="curve" smooth="yes"/>
      <point x="52" y="14" type="line"/>
    </contour>
    <contour>
      <point x="200" y="552" type="move" name="top"/>
    </contour>
  </outline>
</glyph>
<glyph name="lslash.sc" format="1">
  <advance width="627"/>
  <outline>
    <contour>
      <point x="52" y="173" type="line"/>
      <point x="450" y="292" type="line"/>
      <point x="450" y="327" type="line"/>
      <point x="52" y="209" type="line"/>
    </contour>
    <component base="l.sc"/>
  </outline>
</glyph>
<glyph name="n.sc" format="1">
  <advance width="755"/>
  <outline>
    <contour>
      <point x="603" y="-13" type="line"/>
      <point x="611" y="-13" type="line"/>
      <point x="611" y="465" type="line" smooth="yes"/>
      <point x="611" y="498"/>
      <point x="619" y="507"/>
      <point x="665" y="515" type="curve" smooth="yes"/>
      <point x="716" y="524" type="line"/>
      <point x="716" y="538" type="line"/>
      <point x="482" y="538" type="line"/>
      <point x="482" y="524" type="line"/>
      <point x="533" y="515" type="line" smooth="yes"/>
      <point x="580" y="507"/>
      <point x="587" y="496"/>
      <point x="587" y="462" type="curve" smooth="yes"/>
      <point x="588" y="122" type="line"/>
      <point x="196" y="538" type="line"/>
      <point x="52" y="538" type="line"/>
      <point x="52" y="525" type="line"/>
      <point x="91" y="518" type="line" smooth="yes"/>
      <point x="154" y="507"/>
      <point x="158" y="499"/>
      <point x="158" y="462" type="curve" smooth="yes"/>
      <point x="158" y="74" type="line" smooth="yes"/>
      <point x="158" y="40"/>
      <point x="151" y="31"/>
      <point x="104" y="23" type="curve" smooth="yes"/>
      <point x="52" y="14" type="line"/>
      <point x="53" y="0" type="line"/>
      <point x="287" y="0" type="line"/>
      <point x="287" y="14" type="line"/>
      <point x="236" y="23" type="line" smooth="yes"/>
      <point x="190" y="31"/>
      <point x="182" y="42"/>
      <point x="182" y="76" type="curve" smooth="yes"/>
      <point x="182" y="445" type="line"/>
    </contour>
    <contour>
      <point x="391" y="552" type="move" name="top"/>
    </contour>
  </outline>
</glyph>
<glyph name="oe.sc" format="1">
  <advance width="933"/>
  <outline>
    <contour>
      <point x="355" y="-10" type="curve" smooth="yes"/>
      <point x="414" y="-10"/>
      <point x="468" y="3"/>
      <point x="513" y="28" type="curve"/>
      <point x="502" y="75" type="line"/>
      <point x="464" y="35"/>
      <point x="414" y="11"/>
      <point x="355" y="11" type="curve" smooth="yes"/>
      <point x="231" y="11"/>
      <point x="140" y="124"/>
      <point x="140" y="262" type="curve" smooth="yes"/>
      <point x="140" y="412"/>
      <point x="231" y="523"/>
      <point x="355" y="523" type="curve" smooth="yes"/>
      <point x="419" y="523"/>
      <point x="473" y="495"/>
      <point x="511" y="449" type="curve"/>
      <point x="521" y="502" type="line"/>
      <point x="473" y="529"/>
      <point x="417" y="545"/>
      <point x="355" y="545" type="curve" smooth="yes"/>
      <point x="182" y="545"/>
      <point x="56" y="424"/>
      <point x="56" y="262" type="curve" smooth="yes"/>
      <point x="56" y="111"/>
      <point x="182" y="-10"/>
    </contour>
    <contour>
      <point x="422" y="0" type="line"/>
      <point x="859" y="0" type="line"/>
      <point x="860" y="42"/>
      <point x="867" y="94"/>
      <point x="881" y="144" type="curve"/>
      <point x="865" y="144" type="line"/>
      <point x="843" y="103" type="line" smooth="yes"/>
      <point x="823" y="65"/>
      <point x="766" y="20"/>
      <point x="697" y="20" type="curve" smooth="yes"/>
      <point x="620" y="20" type="line" smooth="yes"/>
      <point x="566" y="20"/>
      <point x="554" y="33"/>
      <point x="554" y="72" type="curve" smooth="yes"/>
      <point x="554" y="273" type="line"/>
      <point x="688" y="273" type="line" smooth="yes"/>
      <point x="746" y="273"/>
      <point x="758" y="255"/>
      <point x="767" y="210" type="curve" smooth="yes"/>
      <point x="775" y="173" type="line"/>
      <point x="790" y="173" type="line"/>
      <point x="790" y="395" type="line"/>
      <point x="775" y="395" type="line"/>
      <point x="767" y="358" type="line" smooth="yes"/>
      <point x="758" y="313"/>
      <point x="746" y="295"/>
      <point x="688" y="295" type="curve" smooth="yes"/>
      <point x="554" y="295" type="line"/>
      <point x="554" y="519" type="line"/>
      <point x="700" y="519" type="line" smooth="yes"/>
      <point x="786" y="519"/>
      <point x="817" y="466"/>
      <point x="842" y="397" type="curve"/>
      <point x="859" y="397" type="line"/>
      <point x="856" y="419"/>
      <point x="846" y="454"/>
      <point x="846" y="494" type="curve" smooth="yes"/>
      <point x="846" y="508"/>
      <point x="847" y="523"/>
      <point x="851" y="538" type="curve"/>
      <point x="407" y="539" type="line"/>
      <point x="478" y="509" type="line"/>
      <point x="477" y="24" type="line"/>
    </contour>
    <contour>
      <point x="648" y="552" type="move" name="topcase"/>
    </contour>
  </outline>
</glyph>
<glyph name="oslash.sc" format="1">
  <advance width="713"/>
  <outline>
    <contour>
      <point x="80" y="-13" type="line"/>
      <point x="657" y="523" type="line"/>
      <point x="634" y="545" type="line"/>
      <point x="57" y="9" type="line"/>
    </contour>
    <component base="o.sc"/>
  </outline>
</glyph>
<glyph name="p.sc" format="1">
  <advance width="600"/>
  <outline>
    <contour>
      <point x="53" y="0" type="line"/>
      <point x="338" y="0" type="line"/>
      <point x="338" y="14" type="line"/>
      <point x="287" y="23" type="line" smooth="yes"/>
      <point x="241" y="31"/>
      <point x="233" y="37"/>
      <point x="233" y="70" type="curve" smooth="yes"/>
      <point x="233" y="519" type="line"/>
      <point x="306" y="519" type="line" smooth="yes"/>
      <point x="402" y="519"/>
      <point x="461" y="482"/>
      <point x="461" y="389" type="curve" smooth="yes"/>
      <point x="461" y="292"/>
      <point x="394" y="258"/>
      <point x="316" y="254" type="curve"/>
      <point x="315" y="248" type="line"/>
      <point x="397" y="226"/>
      <point x="548" y="270"/>
      <point x="548" y="389" type="curve" smooth="yes"/>
      <point x="548" y="478"/>
      <point x="457" y="538"/>
      <point x="319" y="538" type="curve" smooth="yes"/>
      <point x="52" y="538" type="line"/>
      <point x="52" y="524" type="line"/>
      <point x="89" y="518" type="line" smooth="yes"/>
      <point x="151" y="508"/>
      <point x="158" y="506"/>
      <point x="158" y="458" type="curve" smooth="yes"/>
      <point x="158" y="70" type="line" smooth="yes"/>
      <point x="158" y="37"/>
      <point x="151" y="31"/>
      <point x="104" y="23" type="curve" smooth="yes"/>
      <point x="52" y="14" type="line"/>
    </contour>
  </outline>
</glyph>
<glyph name="q.sc" format="1">
  <advance width="720"/>
  <outline>
    <contour>
      <point x="444" y="7" type="curve"/>
      <point x="332" y="-6" type="line"/>
      <point x="447" y="-96"/>
      <point x="547" y="-120"/>
      <point x="646" y="-120" type="curve" smooth="yes"/>
      <point x="691" y="-120"/>
      <point x="727" y="-117"/>
      <point x="765" y="-110" type="curve"/>
      <point x="760" y="-97" type="line"/>
      <point x="646" y="-97"/>
      <point x="465" y="-29"/>
    </contour>
    <component base="o.sc"/>
  </outline>
</glyph>
<glyph name="r.sc" format="1">
  <advance width="704"/>
  <outline>
    <contour>
      <point x="639" y="-10" type="curve" smooth="yes"/>
      <point x="654" y="-10"/>
      <point x="669" y="-8"/>
      <point x="682" y="-4" type="curve"/>
      <point x="682" y="10" type="line"/>
      <point x="632" y="10"/>
      <point x="589" y="67"/>
      <point x="546" y="127" type="curve" smooth="yes"/>
      <point x="501" y="190"/>
      <point x="448" y="254"/>
      <point x="370" y="254" type="curve"/>
      <point x="370" y="257" type="line"/>
      <point x="453" y="266"/>
      <point x="523" y="315"/>
      <point x="523" y="390" type="curve" smooth="yes"/>
      <point x="523" y="480"/>
      <point x="438" y="538"/>
      <point x="287" y="538" type="curve" smooth="yes"/>
      <point x="52" y="538" type="line"/>
      <point x="52" y="524" type="line"/>
      <point x="103" y="515" type="line" smooth="yes"/>
      <point x="150" y="507"/>
      <point x="157" y="502"/>
      <point x="157" y="468" type="curve" smooth="yes"/>
      <point x="157" y="70" type="line" smooth="yes"/>
      <point x="157" y="37"/>
      <point x="150" y="31"/>
      <point x="103" y="23" type="curve" smooth="yes"/>
      <point x="52" y="14" type="line"/>
      <point x="52" y="0" type="line"/>
      <point x="338" y="0" type="line"/>
      <point x="337" y="14" type="line"/>
      <point x="286" y="23" type="line" smooth="yes"/>
      <point x="240" y="31"/>
      <point x="233" y="37"/>
      <point x="233" y="70" type="curve" smooth="yes"/>
      <point x="233" y="241" type="line"/>
      <point x="263" y="241" type="line" smooth="yes"/>
      <point x="358" y="241"/>
      <point x="408" y="176"/>
      <point x="460" y="112" type="curve" smooth="yes"/>
      <point x="510" y="51"/>
      <point x="553" y="-10"/>
    </contour>
    <contour>
      <point x="233" y="263" type="line"/>
      <point x="233" y="520" type="line"/>
      <point x="276" y="520" type="line" smooth="yes"/>
      <point x="378" y="520"/>
      <point x="441" y="474"/>
      <point x="441" y="386" type="curve" smooth="yes"/>
      <point x="441" y="311"/>
      <point x="385" y="263"/>
      <point x="287" y="263" type="curve" smooth="yes"/>
    </contour>
    <contour>
      <point x="307" y="552" type="move" name="top"/>
    </contour>
  </outline>
</glyph>
<glyph name="ringcomb.case" format="1">
  <advance width="530"/>
  <outline>
    <contour>
      <point x="174" y="776" type="curve" smooth="yes"/>
      <point x="174" y="726"/>
      <point x="215" y="685"/>
      <point x="265" y="685" type="curve" smooth="yes"/>
      <point x="315" y="685"/>
      <point x="356" y="726"/>
      <point x="356" y="776" type="curve" smooth="yes"/>
      <point x="356" y="826"/>
      <point x="315" y="867"/>
      <point x="265" y="867" type="curve" smooth="yes"/>
      <point x="215" y="867"/>
      <point x="174" y="826"/>
    </contour>
    <contour>
      <point x="211" y="776" type="curve" smooth="yes"/>
      <point x="211" y="806"/>
      <point x="236" y="830"/>
      <point x="266" y="830" type="curve" smooth="yes"/>
      <point x="296" y="830"/>
      <point x="319" y="806"/>
      <point x="319" y="776" type="curve" smooth="yes"/>
      <point x="319" y="746"/>
      <point x="296" y="722"/>
      <point x="266" y="722" type="curve" smooth="yes"/>
      <point x="236" y="722"/>
      <point x="211" y="746"/>
    </contour>
    <contour>
      <point x="265" y="690" type="move" name="_topcase"/>
    </contour>
  </outline>
</glyph>
<glyph name="six.onum" format="1">
  <advance width="500"/>
  <outline>
    <contour>
      <point x="261" y="-8" type="curve" smooth="yes"/>
      <point x="362" y="-8"/>
      <point x="465" y="65"/>
      <point x="465" y="204" type="curve" smooth="yes"/>
      <point x="465" y="314"/>
      <point x="403" y="411"/>
      <point x="275" y="411" type="curve" smooth="yes"/>
      <point x="191" y="411"/>
      <point x="128" y="359"/>
      <point x="119" y="298" type="curve"/>
      <point x="127" y="225" type="line"/>
      <point x="131" y="305"/>
      <point x="175" y="379"/>
      <point x="268" y="379" type="curve" smooth="yes"/>
      <point x="353" y="379"/>
      <point x="389" y="299"/>
      <point x="389" y="204" type="curve" smooth="yes"/>
      <point x="389" y="77"/>
      <point x="346" y="14"/>
      <point x="261" y="14" type="curve" smooth="yes"/>
      <point x="191" y="14"/>
      <point x="126" y="86"/>
      <point x="126" y="256" type="curve" smooth="yes"/>
      <point x="126" y="470"/>
      <point x="202" y="631"/>
      <point x="403" y="671" type="curve"/>
      <point x="403" y="682" type="line"/>
      <point x="193" y="682"/>
      <point x="50" y="510"/>
      <point x="50" y="265" type="curve" smooth="yes"/>
      <point x="50" y="57"/>
      <point x="155" y="-8"/>
    </contour>
  </outline>
</glyph>
<glyph name="tbar.sc" format="1">
  <advance width="620"/>
  <outline>
    <contour>
      <point x="134" y="258" type="line"/>
      <point x="487" y="258" type="line"/>
      <point x="487" y="288" type="line"/>
      <point x="134" y="288" type="line"/>
    </contour>
    <component base="t.sc"/>
  </outline>
</glyph>
<glyph name="three.onum" format="1">
  <advance width="500"/>
  <outline>
    <contour>
      <point x="187" y="-259" type="curve" smooth="yes"/>
      <point x="356" y="-259"/>
      <point x="445" y="-146"/>
      <point x="445" y="-38" type="curve" smooth="yes"/>
      <point x="445" y="48"/>
      <point x="388" y="132"/>
      <point x="270" y="155" type="curve"/>
      <point x="270" y="156" type="line"/>
      <point x="340" y="188"/>
      <point x="386" y="238"/>
      <point x="386" y="306" type="curve" smooth="yes"/>
      <point x="386" y="381"/>
      <point x="324" y="434"/>
      <point x="219" y="434" type="curve" smooth="yes"/>
      <point x="129" y="434"/>
      <point x="48" y="388"/>
      <point x="48" y="311" type="curve" smooth="yes"/>
      <point x="48" y="275"/>
      <point x="71" y="259"/>
      <point x="94" y="259" type="curve" smooth="yes"/>
      <point x="121" y="259"/>
      <point x="142" y="277"/>
      <point x="142" y="303" type="curve" smooth="yes"/>
      <point x="142" y="321"/>
      <point x="134" y="331"/>
      <point x="128" y="339" type="curve"/>
      <point x="123" y="345"/>
      <point x="118" y="350"/>
      <point x="118" y="357" type="curve" smooth="yes"/>
      <point x="118" y="385"/>
      <point x="155" y="406"/>
      <point x="199" y="406" type="curve" smooth="yes"/>
      <point x="268" y="406"/>
      <point x="308" y="369"/>
      <point x="308" y="289" type="curve" smooth="yes"/>
      <point x="308" y="224"/>
      <point x="245" y="162"/>
      <point x="172" y="126" type="curve" smooth="yes"/>
      <point x="132" y="106" type="line"/>
      <point x="142" y="89" type="line"/>
      <point x="161" y="94"/>
      <point x="188" y="104"/>
      <point x="205" y="112" type="curve"/>
      <point x="314" y="100"/>
      <point x="368" y="26"/>
      <point x="368" y="-64" type="curve" smooth="yes"/>
      <point x="368" y="-148"/>
      <point x="310" y="-230"/>
      <point x="192" y="-230" type="curve" smooth="yes"/>
      <point x="143" y="-230"/>
      <point x="97" y="-208"/>
      <point x="97" y="-183" type="curve" smooth="yes"/>
      <point x="97" y="-176"/>
      <point x="102" y="-171"/>
      <point x="107" y="-164" type="curve" smooth="yes"/>
      <point x="114" y="-156"/>
      <point x="121" y="-146"/>
      <point x="121" y="-128" type="curve" smooth="yes"/>
      <point x="121" y="-104"/>
      <point x="104" y="-83"/>
      <point x="76" y="-83" type="curve" smooth="yes"/>
      <point x="53" y="-83"/>
      <point x="30" y="-99"/>
      <point x="30" y="-135" type="curve" smooth="yes"/>
      <point x="30" y="-212"/>
      <point x="102" y="-259"/>
    </contour>
  </outline>
</glyph>
<glyph name="two.onum" format="1">
  <advance width="423"/>
  <outline>
    <contour>
      <point x="20" y="0" type="line"/>
      <point x="359" y="0" type="line"/>
      <point x="383" y="137" type="line"/>
      <point x="365" y="137" type="line"/>
      <point x="359" y="120" type="line" smooth="yes"/>
      <point x="342" y="72"/>
      <point x="331" y="64"/>
      <point x="297" y="64" type="curve" smooth="yes"/>
      <point x="144" y="64" type="line"/>
      <point x="144" y="67" type="line"/>
      <point x="244" y="119"/>
      <point x="345" y="234"/>
      <point x="345" y="312" type="curve" smooth="yes"/>
      <point x="345" y="387"/>
      <point x="297" y="434"/>
      <point x="194" y="434" type="curve" smooth="yes"/>
      <point x="106" y="434"/>
      <point x="27" y="386"/>
      <point x="27" y="311" type="curve" smooth="yes"/>
      <point x="27" y="278"/>
      <point x="46" y="259"/>
      <point x="73" y="259" type="curve" smooth="yes"/>
      <point x="102" y="259"/>
      <point x="121" y="277"/>
      <point x="121" y="304" type="curve" smooth="yes"/>
      <point x="121" y="320"/>
      <point x="114" y="331"/>
      <point x="107" y="339" type="curve" smooth="yes"/>
      <point x="102" y="346"/>
      <point x="97" y="352"/>
      <point x="97" y="359" type="curve" smooth="yes"/>
      <point x="97" y="387"/>
      <point x="126" y="406"/>
      <point x="165" y="406" type="curve" smooth="yes"/>
      <point x="231" y="406"/>
      <point x="267" y="369"/>
      <point x="267" y="297" type="curve" smooth="yes"/>
      <point x="267" y="170"/>
      <point x="139" y="79"/>
      <point x="20" y="18" type="curve"/>
    </contour>
  </outline>
</glyph>
<glyph name="v.sc" format="1">
  <advance width="674"/>
  <outline>
    <contour>
      <point x="343" y="-12" type="line"/>
      <point x="349" y="-12" type="line"/>
      <point x="548" y="461" type="line" smooth="yes"/>
      <point x="565" y="503"/>
      <point x="583" y="508"/>
      <point x="617" y="516" type="curve" smooth="yes"/>
      <point x="652" y="524" type="line"/>
      <point x="652" y="538" type="line"/>
      <point x="442" y="538" type="line"/>
      <point x="442" y="524" type="line"/>
      <point x="481" y="517" type="line" smooth="yes"/>
      <point x="516" y="511"/>
      <point x="527" y="505"/>
      <point x="527" y="490" type="curve" smooth="yes"/>
      <point x="527" y="482"/>
      <point x="522" y="473"/>
      <point x="517" y="460" type="curve" smooth="yes"/>
      <point x="364" y="97" type="line"/>
      <point x="374" y="97" type="line"/>
      <point x="205" y="457" type="line" smooth="yes"/>
      <point x="200" y="468"/>
      <point x="194" y="484"/>
      <point x="194" y="493" type="curve" smooth="yes"/>
      <point x="194" y="509"/>
      <point x="219" y="514"/>
      <point x="247" y="518" type="curve" smooth="yes"/>
      <point x="287" y="524" type="line"/>
      <point x="287" y="538" type="line"/>
      <point x="22" y="538" type="line"/>
      <point x="22" y="524" type="line"/>
      <point x="57" y="518" type="line" smooth="yes"/>
      <point x="99" y="511"/>
      <point x="111" y="499"/>
      <point x="128" y="462" type="curve" smooth="yes"/>
    </contour>
  </outline>
</glyph>
<glyph name="w.sc" format="1">
  <advance width="984"/>
  <outline>
    <contour>
      <point x="314" y="-7" type="line"/>
      <point x="320" y="-7" type="line"/>
      <point x="493" y="428" type="line"/>
      <point x="654" y="-7" type="line"/>
      <point x="659" y="-7" type="line"/>
      <point x="845" y="459" type="line" smooth="yes"/>
      <point x="859" y="495"/>
      <point x="876" y="512"/>
      <point x="917" y="518" type="curve" smooth="yes"/>
      <point x="962" y="524" type="line"/>
      <point x="962" y="538" type="line"/>
      <point x="740" y="538" type="line"/>
      <point x="740" y="524" type="line"/>
      <point x="794" y="514" type="line" smooth="yes"/>
      <point x="831" y="507"/>
      <point x="836" y="500"/>
      <point x="823" y="467" type="curve" smooth="yes"/>
      <point x="683" y="121" type="line"/>
      <point x="552" y="462" type="line" smooth="yes"/>
      <point x="538" y="498"/>
      <point x="533" y="506"/>
      <point x="578" y="514" type="curve" smooth="yes"/>
      <point x="635" y="524" type="line"/>
      <point x="635" y="538" type="line"/>
      <point x="400" y="538" type="line"/>
      <point x="400" y="524" type="line"/>
      <point x="451" y="514" type="line" smooth="yes"/>
      <point x="495" y="505"/>
      <point x="495" y="498"/>
      <point x="479" y="459" type="curve" smooth="yes"/>
      <point x="342" y="122" type="line"/>
      <point x="208" y="467" type="line" smooth="yes"/>
      <point x="196" y="498"/>
      <point x="198" y="507"/>
      <point x="237" y="514" type="curve" smooth="yes"/>
      <point x="294" y="524" type="line"/>
      <point x="294" y="538" type="line"/>
      <point x="22" y="538" type="line"/>
      <point x="22" y="524" type="line"/>
      <point x="57" y="518" type="line" smooth="yes"/>
      <point x="98" y="511"/>
      <point x="115" y="495"/>
      <point x="129" y="459" type="curve" smooth="yes"/>
    </contour>
    <contour>
      <point x="515" y="552" type="move" name="top"/>
    </contour>
  </outline>
</glyph>
<glyph name="y.sc" format="1">
  <advance width="632"/>
  <outline>
    <contour>
      <point x="294" y="244" type="line"/>
      <point x="352" y="257" type="line"/>
      <point x="498" y="470" type="line" smooth="yes"/>
      <point x="521" y="504"/>
      <point x="546" y="514"/>
      <point x="578" y="519" type="curve" smooth="yes"/>
      <point x="610" y="524" type="line"/>
      <point x="610" y="538" type="line"/>
      <point x="399" y="538" type="line"/>
      <point x="399" y="524" type="line"/>
      <point x="451" y="513" type="line" smooth="yes"/>
      <point x="480" y="507"/>
      <point x="482" y="493"/>
      <point x="466" y="470" type="curve" smooth="yes"/>
      <point x="339" y="282" type="line"/>
      <point x="354" y="282" type="line"/>
      <point x="213" y="464" type="line" smooth="yes"/>
      <point x="187" y="498"/>
      <point x="197" y="512"/>
      <point x="242" y="518" type="curve" smooth="yes"/>
      <point x="286" y="524" type="line"/>
      <point x="286" y="538" type="line"/>
      <point x="22" y="538" type="line"/>
      <point x="22" y="523" type="line"/>
      <point x="47" y="519" type="line" smooth="yes"/>
      <point x="76" y="514"/>
      <point x="91" y="505"/>
      <point x="108" y="483" type="curve" smooth="yes"/>
    </contour>
    <contour>
      <point x="179" y="0" type="line"/>
      <point x="465" y="0" type="line"/>
      <point x="465" y="14" type="line"/>
      <point x="414" y="23" type="line" smooth="yes"/>
      <point x="368" y="31"/>
      <point x="360" y="37"/>
      <point x="360" y="70" type="curve" smooth="yes"/>
      <point x="360" y="272" type="line"/>
      <point x="284" y="264" type="line"/>
      <point x="284" y="70" type="line" smooth="yes"/>
      <point x="284" y="37"/>
      <point x="277" y="31"/>
      <point x="231" y="23" type="curve" smooth="yes"/>
      <point x="179" y="14" type="line"/>
    </contour>
    <contour>
      <point x="336" y="552" type="move" name="top"/>
    </contour>
  </outline>
</glyph>
<glyph name="zero.onum" format="1">
  <advance width="512"/>
  <outline>
    <contour>
      <point x="253" y="-8" type="curve" smooth="yes"/>
      <point x="376" y="-8"/>
      <point x="472" y="86"/>
      <point x="472" y="219" type="curve" smooth="yes"/>
      <point x="472" y="339"/>
      <point x="381" y="434"/>
      <point x="259" y="434" type="curve" smooth="yes"/>
      <point x="136" y="434"/>
      <point x="40" y="340"/>
      <point x="40" y="207" type="curve" smooth="yes"/>
      <point x="40" y="87"/>
      <point x="131" y="-8"/>
    </contour>
    <contour>
      <point x="254" y="17" type="curve" smooth="yes"/>
      <point x="171" y="17"/>
      <point x="117" y="95"/>
      <point x="117" y="208" type="curve" smooth="yes"/>
      <point x="117" y="332"/>
      <point x="174" y="409"/>
      <point x="258" y="409" type="curve" smooth="yes"/>
      <point x="341" y="409"/>
      <point x="395" y="331"/>
      <point x="395" y="218" type="curve" smooth="yes"/>
      <point x="395" y="94"/>
      <point x="338" y="17"/>
    </contour>
  </outline>
</glyph>
